<?xml version="1.0" standalone="no"?>
<!DOCTYPE svg PUBLIC "-//W3C//DTD SVG 1.1//EN" "http://www.w3.org/Graphics/SVG/1.1/DTD/svg11.dtd" >
<svg xmlns="http://www.w3.org/2000/svg">
<metadata>Generated by IcoMoon</metadata>
<defs>
<font id="icon-orange" horiz-adv-x="1024">
<font-face units-per-em="1024" ascent="960" descent="-64" />
<missing-glyph horiz-adv-x="1024" />
<glyph unicode="&#x20;" horiz-adv-x="512" d="" />
<glyph unicode="&#xe900;" glyph-name="G" d="M365.259 474.752v1.448c23.642 6.753 41.379 19.547 53.211 38.37 11.821 18.823 17.738 40.542 17.738 65.157 0 22.681-5.068 42.714-15.204 60.090-10.135 17.375-23.291 32.092-39.456 44.162-16.176 12.058-34.388 21.108-54.66 27.149-20.271 6.029-40.542 9.049-60.813 9.049-26.063 0-49.716-4.231-70.949-12.669-21.244-8.45-39.457-20.396-54.66-35.837-15.203-15.452-27.036-33.913-35.474-55.383-8.45-21.482-13.155-45.249-14.117-71.311h97.736c-0.486 26.063 5.905 47.657 19.185 64.795 13.269 17.126 32.941 25.701 59.004 25.701 18.823 0 35.474-5.792 49.954-17.375s21.719-28.235 21.719-49.954c0-14.479-3.507-26.063-10.498-34.751-7.002-8.687-15.927-15.327-26.787-19.909-10.86-4.592-22.568-7.364-35.113-8.325-12.556-0.973-24.377-0.973-35.474 0v-72.397c12.545 0 25.701-0.362 39.457-1.086s26.425-3.382 38.008-7.964c11.583-4.592 21.108-11.945 28.597-22.081 7.477-10.135 11.222-24.864 11.222-44.162 0-24.615-7.964-44.049-23.891-58.279-15.928-14.242-35.475-21.357-58.642-21.357-14.966 0-27.872 2.647-38.732 7.963-10.86 5.306-19.909 12.421-27.149 21.357-7.24 8.926-12.794 19.548-16.651 31.855-3.869 12.307-6.041 25.214-6.516 38.732h-97.734c-0.486-29.445 3.734-55.508 12.67-78.188 8.925-22.692 21.594-41.878 38.008-57.556 16.402-15.69 36.311-27.635 59.728-35.836 23.405-8.201 49.343-12.308 77.826-12.308 24.615 0 48.257 3.62 70.949 10.86 22.681 7.24 42.714 17.85 60.089 31.854 17.376 13.993 31.244 31.369 41.628 52.126 10.374 20.746 15.566 44.4 15.566 70.949 0 28.959-7.964 53.811-23.891 74.569-15.927 20.747-37.895 34.265-65.881 40.543zM729.414 482.716v-84.705h114.387c-3.382-36.198-15.327-63.833-35.836-82.894-20.52-19.072-49.592-28.597-87.238-28.597-25.588 0-47.307 4.944-65.157 14.842-17.862 9.886-32.341 23.042-43.438 39.456-11.109 16.402-19.186 34.864-24.253 55.384-5.068 20.508-7.602 41.628-7.602 63.347 0 22.68 2.534 44.637 7.602 65.881 5.067 21.232 13.144 40.18 24.253 56.831 11.097 16.652 25.576 29.921 43.438 39.819 17.85 9.886 39.569 14.841 65.157 14.841 27.511 0 50.915-7.24 70.225-21.719 19.298-14.48 32.329-36.199 39.094-65.157h108.595c-2.896 29.433-10.858 55.496-23.891 78.188-13.031 22.681-29.569 41.741-49.592 57.194-20.033 15.441-42.476 27.149-67.329 35.112-24.863 7.964-50.564 11.946-77.102 11.946-39.581 0-75.18-7.003-106.785-20.995-31.617-14.005-58.28-33.303-79.999-57.918s-38.37-53.46-49.954-86.514c-11.583-33.065-17.375-68.901-17.375-107.509 0-37.647 5.792-72.759 17.375-105.338s28.235-60.937 49.954-85.066c21.719-24.14 48.382-43.076 79.999-56.831 31.605-13.756 67.204-20.633 106.785-20.633 25.090 0 49.954 5.192 74.569 15.565s47.058 28.597 67.329 54.659l11.583-58.64h72.397v279.452h-217.191z" />
<glyph unicode="&#xe901;" glyph-name="G2" d="M389.12 710.144h-92.16l-220.16-294.912v-95.232h214.016v-116.736h98.304v117.76h66.56v84.992h-66.56v304.128zM290.816 404.992h-133.12l131.072 176.128h2.048v-176.128zM729.088 482.816v-84.992h114.688c-3.382-36.198-15.693-63.646-36.201-82.707-20.52-19.072-49.592-28.597-87.239-28.597-25.587 0-47.306 4.944-65.157 14.842-17.861 9.886-32.341 23.042-43.438 39.456-11.108 16.402-19.185 34.864-24.253 55.384-5.067 20.508-7.601 41.628-7.601 63.347 0 22.68 2.534 44.637 7.601 65.881 5.068 21.232 13.145 40.18 24.253 56.831 11.097 16.652 25.577 29.921 43.438 39.819 17.851 9.886 39.57 14.841 65.157 14.841 27.511 0 50.916-7.24 70.225-21.719 19.299-14.48 32.33-36.199 39.095-65.157h108.595c-2.896 29.433-10.86 55.496-23.891 78.188-13.032 22.681-29.57 41.741-49.592 57.194-20.033 15.441-42.476 27.149-67.329 35.112-24.864 7.964-50.565 11.946-77.103 11.946-39.58 0-75.179-7.003-106.785-20.995-31.617-14.005-58.279-33.303-79.998-57.918s-38.371-53.46-49.954-86.514c-11.583-33.065-17.375-68.901-17.375-107.509 0-37.647 5.791-72.759 17.375-105.338s28.235-60.937 49.954-85.066c21.719-24.14 48.381-43.076 79.998-56.831 31.606-13.755 66.74-20.313 106.321-20.313 25.090 0 50.418 4.873 75.033 15.246s47.058 28.597 67.329 54.659l11.238-58.641h73.728l1.024 279.552h-219.136z" />
<glyph unicode="&#xe902;" glyph-name="Reseau" d="M512 857.6c-240.354 0-435.2-154.73-435.2-345.6 0-147.931 117.043-274.15 281.6-323.454v-175.746l153.6 153.6c240.354 0 435.2 154.73 435.2 345.6s-194.846 345.6-435.2 345.6zM691.2 345.6h-358.4c-28.277 0-51.2 22.923-51.2 51.2 0 9.41 2.55 18.219 6.979 25.795l-0.004 0.003 0.421 0.722c0.007 0.011 0.012 0.022 0.019 0.033l178.764 306.442c8.881 15.192 25.353 25.405 44.221 25.405s35.34-10.213 44.221-25.405l0.005 0.003 179.195-307.203c4.429-7.576 6.979-16.385 6.979-25.795 0-28.277-22.923-51.2-51.2-51.2zM512 448c-14.138 0-25.6-11.462-25.6-25.6s11.462-25.6 25.6-25.6 25.6 11.462 25.6 25.6-11.462 25.6-25.6 25.6zM512 652.8c-14.138 0-25.6-11.462-25.6-25.6 0-0.519 0.020-1.033 0.051-1.545h-0.001l8.483-139.435h0.001c0.004-9.421 7.643-12.961 17.066-12.961s17.062 3.54 17.066 12.961h0.001l8.461 139.114h-0.003c0.045 0.616 0.075 1.238 0.075 1.866 0 14.138-11.462 25.6-25.6 25.6z" />
<glyph unicode="&#xe903;" glyph-name="accessibility_hearing" d="M609.657 482.548c15.215-7.508 33.635-1.257 41.141 13.958 10.628 21.542 16.016 44.718 16.015 68.881 0 85.935-69.913 155.849-155.85 155.849s-155.85-69.914-155.85-155.849c0-18.36 3.191-36.31 9.339-53.226l-0.181-0.070c5.457-12.356 8.494-26.021 8.494-40.396 0-14.442-3.064-28.168-8.569-40.568l0.146-0.044c-4.089-9.98-6.36-20.898-6.36-32.35 0-47.16 38.23-85.39 85.389-85.39s85.387 38.23 85.387 85.39c0 34.658-20.66 64.47-50.326 77.852-0.513 0.25-1.037 0.487-1.571 0.71-0.159 0.068-0.319 0.137-0.48 0.204-0.035 0.014-0.069 0.031-0.105 0.045-17.413 6.883-32.282 18.7-42.998 34.173-10.941 15.798-16.725 34.357-16.725 53.671 0 52.057 42.352 94.409 94.41 94.409s94.41-42.352 94.41-94.41c0.001-14.654-3.255-28.683-9.675-41.697-7.508-15.215-1.258-33.635 13.957-41.141zM698.651 760.987c-51.737 51.738-120.524 80.229-193.691 80.229-53.178 0-104.756-15.263-149.158-44.138-43.224-28.109-77.551-67.617-99.272-114.254-7.163-15.379-0.502-33.654 14.879-40.817s33.655-0.502 40.817 14.878c16.856 36.191 43.507 66.859 77.072 88.686 34.408 22.377 74.404 34.206 115.662 34.206 117.162 0 212.48-95.318 212.48-212.48 0-40.541-11.439-79.897-33.080-113.902l-238.395-309.158c-0.135-0.175-0.259-0.355-0.389-0.532-15.071-17.49-36.792-27.48-59.931-27.48-43.607 0-79.085 35.478-79.085 79.084v59.576c0 16.966-13.754 30.72-30.72 30.72s-30.72-13.754-30.72-30.72v-59.576c0-77.485 63.039-140.524 140.525-140.524 42.37 0 82.056 18.838 108.881 51.682 0.695 0.851 1.335 1.729 1.924 2.628l237.435 307.913c0.061 0.079 0.116 0.161 0.176 0.241 0.136 0.179 0.267 0.361 0.399 0.544 0.256 0.354 0.502 0.712 0.741 1.073 0.059 0.090 0.124 0.173 0.182 0.264 0.078 0.12 0.152 0.242 0.23 0.362 0.032 0.051 0.065 0.103 0.097 0.155 28.242 44.054 43.17 95.094 43.17 147.649-0.001 73.169-28.494 141.956-80.23 193.693z" />
<glyph unicode="&#xe904;" glyph-name="accessibility_mobility" d="M443.477 663.040c56.554 0 102.4 45.846 102.4 102.4s-45.846 102.4-102.4 102.4-102.4-45.846-102.4-102.4 45.846-102.4 102.4-102.4zM579.551 148.085c-37.714-37.715-87.858-58.485-141.194-58.485s-103.48 20.77-141.195 58.485c-37.715 37.714-58.485 87.858-58.485 141.195s20.77 103.481 58.485 141.195c13.239 13.238 28.013 24.379 43.915 33.277v67.909c-96.030-38.578-163.84-132.555-163.84-242.381 0-144.213 116.908-261.12 261.12-261.12 102.355 0 190.939 58.902 233.748 144.649l-40.708 65.133c-8.899-33.682-26.554-64.566-51.846-89.857zM691.693 382.977c-9.702 15.524-26.366 24.042-43.416 24.059v0.004h-0.309c-0.169-0.001-0.337 0.002-0.507 0h-127.184v71.681h133.1c0.006 0 0.014-0.001 0.020-0.001 19.792 0 35.84 16.046 35.84 35.84s-16.048 35.84-35.84 35.84h-133.12v10.24c0 42.416-34.384 76.8-76.8 76.8s-76.8-34.384-76.8-76.8v-179.2c0-42.415 34.384-76.8 76.8-76.8h176.422l112.959-180.735c9.714-15.541 26.396-24.071 43.466-24.071 9.266 0 18.65 2.516 27.088 7.79 0.996 0.623 43.35 27.242 43.35 27.242l-155.069 248.111z" />
<glyph unicode="&#xe905;" glyph-name="accessibility_vision" d="M525.395 703.868c-4.113 0-8.234 0.132-12.371 0.132s-8.258-0.132-12.371-0.132c-192.086 0-386.486-135.387-449.453-255.868 62.967-120.48 255.319-255.868 447.405-255.868 4.113 0 8.233-0.132 12.371-0.132 4.137 0 8.258 0.132 12.371 0.132 192.086 0 386.487 135.388 449.453 255.868-62.966 120.481-255.319 255.868-447.405 255.868zM258.538 327.302c-56.33 34.45-104.782 77.962-135.231 120.663 30.497 42.593 79.261 86.099 136.106 120.644 18.738 11.386 37.899 21.534 57.261 30.407-13.197-16.906-24.089-35.423-32.509-55.331-12.833-30.338-19.338-62.53-19.338-95.682s6.506-65.343 19.338-95.681c8.589-20.308 19.75-39.17 33.307-56.35-19.946 9.083-39.671 19.548-58.933 31.329zM510.587 263.683c-101.796 0-184.32 82.519-184.32 184.32 0 101.802 82.524 184.32 184.32 184.32 101.803 0 184.32-82.518 184.32-184.32s-82.517-184.32-184.32-184.32zM764.587 327.392c-20.164-12.253-40.815-23.077-61.682-32.414 13.914 17.447 25.349 36.642 34.105 57.345 12.831 30.338 19.337 62.529 19.337 95.681s-6.506 65.343-19.337 95.681c-8.918 21.087-20.617 40.609-34.884 58.313 21.446-9.533 42.658-20.651 63.336-33.297 56.331-34.45 104.782-77.963 135.231-120.664-30.499-42.597-79.258-86.098-136.108-120.644zM564.184 457.777c-27.276 0-49.386 22.111-49.386 49.386 0 21.72 14.027 40.151 33.512 46.764-11.792 4.199-24.489 6.493-37.723 6.493-62.087 0-112.419-50.328-112.419-112.417s50.332-112.417 112.419-112.417c62.092 0 112.419 50.328 112.419 112.417 0 17.161-3.851 33.419-10.725 47.969-5.071-21.883-24.672-38.196-48.096-38.196z" />
<glyph unicode="&#xe906;" glyph-name="Add_person" d="M512 514.56c101.796 0 184.32 82.523 184.32 184.32 0 101.796-82.524 184.32-184.32 184.32s-184.32-82.524-184.32-184.32c0-101.797 82.524-184.32 184.32-184.32zM673.484 527.453c-42.164-39.733-98.976-64.093-161.484-64.093-62.504 0-119.312 24.357-161.475 64.085-70.162-38.325-118.203-112.069-120.061-197.205h-0.065v-215.040c0-56.554 45.846-102.4 102.4-102.4h460.8v312.32c0 87.293-48.549 163.242-120.116 202.333zM742.4 151.040c0-5.656-4.584-10.24-10.24-10.24h-66.56v-66.56c0-5.655-4.585-10.24-10.24-10.24h-30.72c-5.655 0-10.24 4.585-10.24 10.24v66.56h-66.56c-5.655 0-10.24 4.584-10.24 10.24v30.72c0 5.655 4.585 10.24 10.24 10.24h66.56v66.56c0 5.655 4.585 10.24 10.24 10.24h30.72c5.655 0 10.24-4.585 10.24-10.24v-66.56h66.56c5.656 0 10.24-4.585 10.24-10.24v-30.72z" />
<glyph unicode="&#xe907;" glyph-name="Add" d="M870.4 550.4h-256v256c0 28.277-22.923 51.2-51.2 51.2h-102.4c-28.277 0-51.2-22.923-51.2-51.2v-256h-256c-28.277 0-51.2-22.923-51.2-51.2v-102.4c0-28.277 22.923-51.2 51.2-51.2h256v-256c0-28.277 22.923-51.2 51.2-51.2h102.4c28.277 0 51.2 22.923 51.2 51.2v256h256c28.277 0 51.2 22.923 51.2 51.2v102.4c0 28.277-22.923 51.2-51.2 51.2z" />
<glyph unicode="&#xe908;" glyph-name="Address_Book" d="M895.876 780.906c0 42.416-34.26 76.676-76.676 76.676l-614.4 0.017v-128.007h-25.6c-28.277 0-51.2-22.924-51.2-51.2 0-28.278 22.923-51.149 51.2-51.149h25.6v-128.051h-25.6c-28.277 0-51.2-22.885-51.2-51.161 0-28.278 22.923-51.232 51.2-51.232h25.6v-127.985h-25.6c-28.277 0-51.2-22.956-51.2-51.232 0-28.278 22.923-51.2 51.2-51.2h25.6v-51.365c0-42.416 34.384-76.47 76.8-76.47l614.4-0.148-0.124 742.506zM550.4 704.171c49.485 0 89.6-40.115 89.6-89.6s-40.115-89.6-89.6-89.6-89.6 40.115-89.6 89.6 40.115 89.6 89.6 89.6zM691.2 192.008h-230.504c-28.277 0-51.096 22.923-51.096 51.2v114.68c0 77.762 63.038 141.372 140.8 141.372s140.8-63.611 140.8-141.372v-165.88z" />
<glyph unicode="&#xe909;" glyph-name="Aeroplane" d="M891.514 821.822c-0.17 0.258-0.342 0.513-0.522 0.763-0.201 0.273-0.403 0.546-0.616 0.81-0.476 0.596-0.974 1.175-1.518 1.72-0.543 0.543-1.122 1.041-1.717 1.516-0.267 0.215-0.542 0.419-0.818 0.622-0.244 0.175-0.493 0.343-0.744 0.508-22.762 15.327-75.592-10.030-120.224-43.814l-164.67-123.504-354.182 118.528c-9.854 2.843-20.913 0.391-28.678-7.375l-48.578-48.578 307.48-185.803-184.8-226.699-135.123 57.861c-5.296 2.239-11.646 1.209-15.962-3.108-0.016-0.016-0.030-0.034-0.045-0.050l-0.006-0.001-13.534-13.534 288.175-288.174c0 0 7.618 7.618 13.585 13.585 0.026 0.025 0.052 0.052 0.077 0.077 0.006 0.006 0.012 0.022 0.018 0.028 3.969 4.045 5.089 9.826 3.382 14.864 0.019 0.112 0.029 0.178 0.029 0.178l-58.259 135.939 227.579 185.518 184.099-309.022 50.224 50.225 0.022 0.11c8.573 9.339 9.955 22.893 4.118 33.585l-116.115 348.341 123.503 164.671c33.673 44.636 59.122 97.441 43.824 120.211z" />
<glyph unicode="&#xe90a;" glyph-name="Alias_numbers" d="M614.4 563.2c0-4.147-0.147-8.259-0.406-12.341 86.111 6.342 154.006 78.21 154.006 165.941 0 91.9-74.5 166.4-166.4 166.4-78.956 0-145.068-54.992-162.125-128.764 98.038-8.643 174.925-90.953 174.925-191.236zM715.331 543.402c-31.31-20.578-68.52-32.908-108.55-33.891-11.014-37.89-33.403-70.926-63.207-95.209 85.283-24.746 147.627-103.438 147.627-196.701v-51.2h153.6v204.8c0 81.713-54.694 150.646-129.469 172.202zM536.131 389.802c-32.656-21.463-71.731-33.962-113.731-33.962s-81.074 12.499-113.731 33.962c-74.775-21.556-129.469-90.489-129.469-172.202v-153.6c0-28.277 22.923-51.2 51.2-51.2h435.2v204.8c0 81.713-54.695 150.646-129.469 172.202zM422.4 396.8c91.9 0 166.4 74.5 166.4 166.4s-74.5 166.4-166.4 166.4-166.4-74.5-166.4-166.4 74.5-166.4 166.4-166.4z" />
<glyph unicode="&#xe90b;" glyph-name="Antenna" d="M439.592 622.504c-39.99-39.97-39.99-104.774 0-144.744 6.486-6.481 13.628-11.906 21.208-16.286v-397.5c0-28.262 22.923-51.173 51.2-51.173s51.2 22.911 51.2 51.174v397.499c7.58 4.38 14.722 9.805 21.208 16.286 39.99 39.97 39.99 104.774 0 144.744s-104.826 39.97-144.816 0zM385.287 716.176c-9.996 9.992-26.206 9.991-36.204 0-43.518-43.496-67.484-101.326-67.484-162.836 0-61.512 23.966-119.342 67.483-162.838 4.999-4.997 11.55-7.495 18.102-7.495s13.103 2.498 18.102 7.495c9.997 9.992 9.997 26.194 0 36.186-33.847 33.831-52.487 78.809-52.487 126.651s18.64 92.822 52.487 126.65c9.997 9.992 9.997 26.193 0 36.186zM674.917 716.176c-9.998 9.993-26.206 9.993-36.204 0s-9.997-26.194 0-36.186c33.846-33.829 52.486-78.808 52.486-126.65s-18.64-92.822-52.487-126.651c-9.997-9.992-9.997-26.194 0-36.186 4.999-4.997 11.55-7.495 18.102-7.495s13.103 2.498 18.102 7.495c43.517 43.495 67.483 101.326 67.483 162.838s-23.966 119.34-67.483 162.836zM230.4 553.342c0.001 75.179 29.292 145.859 82.479 199.020 9.997 9.993 9.997 26.194 0 36.186s-26.206 9.993-36.204 0c-62.857-62.826-97.474-146.358-97.475-235.206 0-88.849 34.616-172.38 97.473-235.208 4.999-4.997 11.55-7.494 18.102-7.494s13.103 2.498 18.102 7.494c9.997 9.992 9.997 26.193 0 36.186-53.188 53.16-82.478 123.841-82.478 199.022zM747.325 788.548c-9.998 9.993-26.206 9.993-36.204 0s-9.997-26.193 0-36.186c53.187-53.161 82.478-123.842 82.478-199.022 0-75.181-29.292-145.862-82.479-199.022-9.997-9.993-9.997-26.193 0-36.186 4.999-4.997 11.55-7.494 18.102-7.494s13.103 2.497 18.102 7.494c62.857 62.826 97.475 146.358 97.475 235.208s-34.617 172.381-97.475 235.208zM128 553.34c0 102.519 39.943 198.902 112.471 271.394 9.997 9.993 9.997 26.194 0 36.186-9.998 9.993-26.206 9.993-36.204 0-41.535-41.516-73.7-89.934-95.599-143.909-21.147-52.121-31.869-107.187-31.869-163.671s10.722-111.551 31.868-163.672c21.899-53.975 54.063-102.393 95.599-143.908 4.999-4.997 11.55-7.494 18.102-7.494s13.103 2.497 18.102 7.494c9.997 9.992 9.997 26.193 0 36.186-72.528 72.492-112.471 168.875-112.471 271.394zM915.332 717.011c-21.899 53.975-54.063 102.393-95.599 143.909-9.998 9.993-26.206 9.993-36.204 0-9.997-9.992-9.997-26.193 0-36.186 72.527-72.492 112.47-168.875 112.47-271.394s-39.943-198.902-112.471-271.394c-9.997-9.993-9.997-26.194 0-36.186 4.999-4.997 11.55-7.494 18.102-7.494s13.103 2.497 18.102 7.494c41.535 41.515 73.7 89.933 95.599 143.908 21.146 52.122 31.868 107.188 31.868 163.672s-10.722 111.55-31.868 163.671z" />
<glyph unicode="&#xe90c;" glyph-name="Anti_spam" d="M512 883.2c-240.354 0-435.2-194.846-435.2-435.2s194.846-435.2 435.2-435.2c240.355 0 435.2 194.845 435.2 435.2s-194.845 435.2-435.2 435.2zM205.311 318.49c-17.326 40.964-26.111 84.537-26.111 129.51s8.785 88.546 26.111 129.509c16.757 39.618 40.767 75.219 71.364 105.816s66.198 54.607 105.816 71.364c40.963 17.326 84.536 26.111 129.509 26.111s88.546-8.785 129.51-26.111c17.082-7.226 33.414-15.807 48.924-25.676l-459.446-459.447c-9.869 15.511-18.451 31.842-25.677 48.924zM818.689 318.49c-16.757-39.617-40.767-75.218-71.364-105.815s-66.198-54.607-105.815-71.364c-40.964-17.326-84.537-26.111-129.51-26.111s-88.546 8.785-129.509 26.111c-17.083 7.225-33.415 15.807-48.925 25.676l459.447 459.447c9.869-15.51 18.451-31.842 25.676-48.925 17.326-40.963 26.111-84.536 26.111-129.509s-8.785-88.546-26.111-129.51z" />
<glyph unicode="&#xe90d;" glyph-name="Apps" d="M435.2 832h-256c-28.277 0-51.2-22.923-51.2-51.2v-256c0-28.277 22.923-51.2 51.2-51.2h256c28.277 0 51.2 22.923 51.2 51.2v256c0 28.277-22.923 51.2-51.2 51.2zM435.2 422.4h-256c-28.277 0-51.2-22.923-51.2-51.2v-256c0-28.277 22.923-51.2 51.2-51.2h256c28.277 0 51.2 22.923 51.2 51.2v256c0 28.277-22.923 51.2-51.2 51.2zM844.8 832h-256c-28.277 0-51.2-22.923-51.2-51.2v-256c0-28.277 22.923-51.2 51.2-51.2h256c28.277 0 51.2 22.923 51.2 51.2v256c0 28.277-22.923 51.2-51.2 51.2zM844.8 422.4h-256c-28.277 0-51.2-22.923-51.2-51.2v-256c0-28.277 22.923-51.2 51.2-51.2h256c28.277 0 51.2 22.923 51.2 51.2v256c0 28.277-22.923 51.2-51.2 51.2z" />
<glyph unicode="&#xe90e;" glyph-name="Arrow_down" d="M102.4 678.4l409.6-486.4 409.6 486.4z" />
<glyph unicode="&#xe90f;" glyph-name="Arrow_up" d="M512 704l-409.6-486.4h819.2z" />
<glyph unicode="&#xe910;" glyph-name="assistance" d="M512 883.2c-240.356 0-435.2-194.846-435.2-435.2s194.844-435.2 435.2-435.2c240.354 0 435.2 194.846 435.2 435.2s-194.846 435.2-435.2 435.2zM543.542 186.232c-10.953-9.733-23.608-14.607-37.961-14.607-14.835 0-27.798 4.817-38.861 14.423-11.082 9.611-16.616 23.054-16.616 40.329 0 15.331 5.35 28.229 16.056 38.687 10.71 10.461 23.856 15.692 39.421 15.692 15.335 0 28.222-5.231 38.695-15.692 10.456-10.458 15.692-23.356 15.692-38.687 0-17.033-5.485-30.417-16.426-40.145zM679.857 524.199c-8.394-15.573-18.367-29.016-29.93-40.325-11.551-11.314-32.294-30.367-62.231-57.124-8.263-7.546-14.901-14.171-19.887-19.894-4.981-5.715-8.696-10.946-11.129-15.688-2.436-4.74-4.32-9.486-5.662-14.232-1.333-4.747-3.345-13.081-6.020-25.006-4.616-25.305-19.103-37.958-43.431-37.958-12.657 0-23.296 4.137-31.94 12.41-8.635 8.269-12.951 20.556-12.951 36.858 0 20.443 3.161 38.148 9.485 53.108 6.328 14.965 14.716 28.107 25.192 39.415 10.458 11.316 24.573 24.761 42.342 40.342 15.558 13.616 26.817 23.896 33.754 30.835 6.935 6.936 12.775 14.655 17.514 23.175 4.744 8.509 7.122 17.758 7.122 27.736 0 19.467-7.247 35.891-21.722 49.274-14.477 13.373-33.15 20.074-56.018 20.074-26.77 0-46.483-6.757-59.129-20.259-12.66-13.507-23.366-33.39-32.112-59.67-8.28-27.496-23.979-41.245-47.087-41.245-13.629 0-25.129 4.802-34.491 14.417-9.372 9.61-14.051 20.010-14.051 31.208 0 23.109 7.416 46.531 22.261 70.253 14.839 23.729 36.498 43.369 64.97 58.943 28.466 15.574 61.677 23.361 99.639 23.361 35.266 0 66.427-6.508 93.434-19.527 26.999-13.021 47.868-30.718 62.586-53.101 14.721-22.388 22.088-46.721 22.088-72.996-0.002-20.685-4.206-38.811-12.598-54.386z" />
<glyph unicode="&#xe911;" glyph-name="Attachment" d="M576 908.8c-91.9 0-166.4-74.5-166.4-166.4v-524.8c0-56.554 45.846-102.4 102.4-102.4s102.4 45.846 102.4 102.4v307.2c0 28.277-22.923 51.2-51.2 51.2h-25.6v-358.4c0-14.116-11.484-25.6-25.6-25.6s-25.6 11.484-25.6 25.6v524.8c0 49.406 40.194 89.6 89.6 89.6s89.6-40.194 89.6-89.6v-524.8c0-41.028-15.977-79.6-44.988-108.612s-67.584-44.988-108.612-44.988-79.601 15.977-108.611 44.988c-29.012 29.012-44.989 67.584-44.989 108.612v358.4h-25.6c-28.277 0-51.2-22.923-51.2-51.2v-307.2c0-127.246 103.153-230.4 230.4-230.4s230.4 103.154 230.4 230.4v524.8c0 91.9-74.5 166.4-166.4 166.4z" />
<glyph unicode="&#xe912;" glyph-name="Auditorium" d="M76.8 857.6v-511.999h90.324c-13.224 14.774-23.628 32.121-30.372 51.2h-8.752v409.599h768v-409.599h-8.752c-6.744-19.079-17.148-36.426-30.372-51.2h90.324v511.999h-870.4zM857.284 328.57c-31.106-26.013-71.163-41.678-114.884-41.678-10.6 0-20.981 0.929-31.076 2.694 0.606-0.888 1.226-1.765 1.817-2.665 19.142-29.185 29.26-63.129 29.26-98.162v-175.957h204.8v175.957c0 62.112-36.87 115.61-89.916 139.811zM281.6 188.759c0 35.033 10.117 68.977 29.259 98.162 0.591 0.9 1.211 1.777 1.816 2.665-10.094-1.765-20.476-2.694-31.075-2.694-43.721 0-83.779 15.665-114.884 41.678-53.045-24.201-89.915-77.699-89.915-139.811v-133.29c0-23.564 19.103-42.667 42.667-42.667h177.166c-9.394 11.697-15.033 26.532-15.033 42.667v133.29zM626.883 327.544c-31.105-26.013-71.162-41.678-114.883-41.678s-83.778 15.665-114.884 41.678c-53.046-24.201-89.916-77.699-89.916-139.811v-132.266c0-23.565 19.103-42.667 42.667-42.667h366.933v174.933c0 62.112-36.87 115.61-89.917 139.811zM742.4 321.028c70.692 0 128 57.307 128 127.999s-57.308 128-128 128c-40.194 0-76.055-18.533-99.522-47.513 14.8-23.965 22.722-51.615 22.722-80.487s-7.925-56.52-22.726-80.482c23.466-28.982 59.329-47.517 99.526-47.517zM281.6 577.027c-70.692 0-128-57.308-128-128s57.308-127.999 128-127.999c40.197 0 76.060 18.534 99.526 47.517-14.801 23.962-22.726 51.61-22.726 80.482s7.922 56.523 22.722 80.487c-23.467 28.979-59.327 47.513-99.522 47.513zM512 321.025c70.692 0 128 57.308 128 128s-57.308 128-128 128-128-57.308-128-128 57.308-128 128-128z" />
<glyph unicode="&#xe913;" glyph-name="Avatar" d="M672.46 527.454c-42.164-39.734-98.976-64.094-161.484-64.094-62.504 0-119.312 24.357-161.475 64.086-70.162-38.326-118.203-112.070-120.061-197.206h-0.065v-215.040c0-56.554 45.846-102.4 102.4-102.4h460.8v312.32c0 87.293-48.549 163.242-120.116 202.334zM510.976 514.56c101.796 0 184.32 82.523 184.32 184.32 0 101.796-82.524 184.32-184.32 184.32s-184.32-82.524-184.32-184.32c0-101.797 82.524-184.32 184.32-184.32z" />
<glyph unicode="&#xe914;" glyph-name="backup" d="M768 883.2h-588.8v-640c0-42.415 34.385-76.8 76.8-76.8h153.6v-94.080c0-31.645 19.317-57.532 51.2-59.52h102.4c16.122 0 24.55 5.463 35.49 16.932 10.623 11.138 15.71 26.356 15.71 42.46v94.208h230.4v640c0 42.415-34.384 76.8-76.8 76.8zM588.8 192v-119.808c0-19.628-6.879-33.792-25.6-33.792h-102.4c-18.418 1.024-25.6 15.635-25.6 33.792v119.808h-76.8l128.321 125.43c6.487 6.499 14.778 13.174 27.122 13.174 9.797 0 19.126-4.423 27.729-13.039l124.029-125.565h-76.8zM562.432 422.4h-101.76l21.68 134.968c-20.207 10.76-33.969 31.773-33.969 56.264 0 35.346 28.654 64 64 64s64-28.654 64-64c0-24.431-13.693-45.403-33.819-56.187l19.868-135.045zM793.6 217.6h-128.251l-25.349 25.6h128v563.2h-512v-563.2h127.513l-25.113-25.6h-76.8c-28.2 0-51.2 23.99-51.2 52.224v562.176h512c28.2 0 51.2-22.966 51.2-51.2v-563.2z" />
<glyph unicode="&#xe915;" glyph-name="bien-etre-out" d="M507.192 841.207c19.065 16.371 37.749 33.215 57.262 49.042 150.15 121.821 363.775 61.339 432.569-122.533 25.515-68.198 29.34-138.779 22.783-210.692-11.847-130.004-53.692-249.32-126.16-357.71-60.425-90.377-136.142-164.549-232.303-217.066-100.153-54.694-199.68-54.984-299.796-0.192-120.359 65.876-208.070 163.342-272.037 282.942-62.24 116.371-93.436 240.971-89.116 373.262 2.666 81.491 23.977 157.699 78.385 220.904 111.462 129.49 311.999 124.522 420.051-9.663 3.595-4.458 7.159-8.932 10.738-13.4-0.785 1.708-1.579 3.409-2.376 5.107z" />
<glyph unicode="&#xe916;" glyph-name="bien-etre" d="M0-64c0 341.254 0 682.5 0 1024 341.057 0 682.201 0 1023.757 0 0-341.169 0-682.582 0-1024-341.052 0-682.362 0-1023.757 0zM508.754 767.48c0.645-1.383 1.293-2.765 1.938-4.146-2.909 3.631-5.81 7.267-8.727 10.89-87.814 109.052-250.79 113.090-341.374 7.853-44.217-51.366-61.537-113.3-63.701-179.528-3.513-107.51 21.84-208.78 72.422-303.352 51.986-97.199 123.268-176.409 221.087-229.941 81.361-44.537 162.246-44.301 243.641 0.156 78.15 42.68 139.684 102.96 188.792 176.404 58.894 88.085 92.902 185.059 102.53 290.712 5.326 58.444 2.215 115.804-18.516 171.229-55.909 149.433-229.521 198.586-351.548 99.583-15.86-12.867-31.048-26.556-46.544-39.861z" />
<glyph unicode="&#xe917;" glyph-name="bill" d="M768 857.6h-588.8v-204.829h51.2c7.042 8.149 17.058 13.141 28.672 13.141 21.208 0 37.888-17.704 37.888-38.912s-17.192-38.4-38.4-38.4c-11.122 0-21.21 5.432-28.222 12.987h-51.138v-307.188h53.248c6.851 6.352 16.033 9.728 26.112 9.728 21.208 0 38.4-17.192 38.4-38.4s-17.192-38.4-38.4-38.4c-12.563 0-23.203 6.546-30.208 15.872h-49.152v-128.512c0-42.416 34.384-76.8 76.8-76.8h588.8v742.4c0 42.416-34.384 77.312-76.8 77.312zM409.6 668.16h307.2c14.138 0 25.6-11.462 25.6-25.6s-11.462-25.6-25.6-25.6h-307.2c-14.138 0-25.6 11.462-25.6 25.6s11.462 25.6 25.6 25.6zM409.6 540.16h307.2c14.138 0 25.6-11.462 25.6-25.6s-11.462-25.6-25.6-25.6h-307.2c-14.138 0-25.6 11.462-25.6 25.6s11.462 25.6 25.6 25.6zM384 386.56c0 14.138 11.462 25.6 25.6 25.6h163.84c14.138 0 25.6-10.694 25.6-25.6 0-14.138-11.462-25.6-25.6-25.6h-163.84c-14.138 0-25.6 11.462-25.6 25.6z" />
<glyph unicode="&#xe918;" glyph-name="Birthday" d="M844.8 473.6h-25.6v153.6c0 14.138-11.462 25.6-25.6 25.6h-51.2c-14.138 0-25.6-11.462-25.6-25.6v-153.6h-153.6v153.6c0 14.138-11.462 25.6-25.6 25.6h-51.2c-14.138 0-25.6-11.462-25.6-25.6v-153.6h-153.6v153.6c0 14.138-11.462 25.6-25.6 25.6h-51.2c-14.138 0-25.6-11.462-25.6-25.6v-153.6h-25.6c-56.554 0-102.4-45.846-102.4-102.4v-102.4c0-14.138 11.462-25.6 25.6-25.6v-230.4h819.2v230.4c14.138 0 25.6 11.462 25.6 25.6v102.4c0 56.554-45.846 102.4-102.4 102.4zM870.4 64h-716.8v128c0.008 61.454 39.82 102.4 103.533 102.4s63.714-51.2 127.428-51.2 63.714 51.2 127.429 51.2h0.020c63.715 0 63.715-51.2 127.429-51.2s63.714 51.2 127.428 51.2c63.713 0 103.525-40.946 103.533-102.4v-128zM254.024 678.45c-20.29 1.029-36.424 17.805-36.424 38.35 0 25.344 38.4 64 38.4 64s38.4-38.656 38.4-64c0-20.545-16.134-37.321-36.423-38.35 41.499 1.052 74.823 34.998 74.823 76.75 0 50.688-76.8 128-76.8 128s-76.8-77.312-76.8-128c0-41.752 33.324-75.698 74.824-76.75zM510.023 678.45c-20.289 1.029-36.423 17.805-36.423 38.35 0 25.344 38.4 64 38.4 64s38.4-38.656 38.4-64c0-20.545-16.134-37.321-36.423-38.35 41.499 1.052 74.823 34.998 74.823 76.75 0 50.688-76.8 128-76.8 128s-76.8-77.312-76.8-128c0-41.752 33.324-75.698 74.823-76.75zM766.023 678.45c-20.289 1.029-36.423 17.805-36.423 38.35 0 25.344 38.4 64 38.4 64s38.4-38.656 38.4-64c0-20.545-16.134-37.321-36.423-38.35 41.499 1.052 74.823 34.998 74.823 76.75 0 50.688-76.8 128-76.8 128s-76.8-77.312-76.8-128c0-41.752 33.324-75.698 74.823-76.75z" />
<glyph unicode="&#xe919;" glyph-name="Bluetooth" d="M567.316 447.488l171.969 171.969c14.996 14.996 14.996 39.31 0 54.306l-199.122 199.121-0.275-0.275c-0.089 0.091-0.172 0.185-0.262 0.275-14.996 14.998-39.31 14.998-54.306 0-8.006-8.006-11.734-18.668-11.192-29.149v-303.058l-131.616 131.616c-0.45 0.499-0.913 0.989-1.394 1.47-14.996 14.996-39.309 14.996-54.306 0-14.983-14.983-14.995-39.267-0.038-54.267l-0.039-0.039 171.97-171.969-171.93-172.007c-14.958-15-14.945-39.284 0.038-54.267 14.996-14.996 39.309-14.996 54.306 0 0.48 0.48 0.944 0.971 1.394 1.47l131.616 131.616v-302.863c-0.599-10.545 3.122-21.289 11.178-29.345 14.996-14.996 39.309-14.996 54.306 0 0.092 0.092 0.177 0.189 0.268 0.282l0.283-0.282 199.121 199.122c14.996 14.996 14.996 39.309 0 54.306l-171.967 171.969zM657.826 248.367l-106.897-106.898v213.796l106.897-106.897zM550.928 539.711v213.796l106.898-106.898-106.898-106.897z" />
<glyph unicode="&#xe91a;" glyph-name="bottom" d="M748.912 629.974l91.436-91.286-319.541-319.949-319.904 319.497 91.238 91.414 228.535-228.212 228.235 228.535z" />
<glyph unicode="&#xe91b;" glyph-name="Business_Lounge" d="M512 509.44c96.14 0 174.080 77.94 174.080 174.080s-77.94 174.080-174.080 174.080c-96.142 0-174.080-77.941-174.080-174.080s77.938-174.080 174.080-174.080zM659.036 526.624c-38.458-36.055-90.165-58.144-147.038-58.144-56.872 0-108.578 22.089-147.034 58.143-64.812-34.384-108.964-102.541-108.964-181.023v-215.040h0.010c0.502-50.983 41.978-92.16 93.080-92.16h418.91v307.2c0 78.481-44.152 146.639-108.964 181.024zM512.002 130.56l-51.202 66.665 31.664 235.839c6.471-0.505 12.986-0.768 19.536-0.768 6.914 0 13.791 0.284 20.618 0.846l30.582-235.917-51.198-66.665z" />
<glyph unicode="&#xe91c;" glyph-name="buy" d="M903.712 564.736h-228.898v117.6c0 90.112-73.214 163.84-163.326 163.84s-163.326-73.728-163.326-163.84v-117.6h-231.426c-28.278 0-51.2-22.923-51.2-51.2 0-9.634 2.665-18.643 7.292-26.34l197.508-434.46h476.16l201.124 434.46c4.627 7.697 8.796 16.706 8.796 26.34 0 28.277-24.426 51.2-52.704 51.2zM424.876 682.336c0 23.068 8.675 44.876 25.206 61.406s38.338 25.634 61.406 25.634 44.876-9.104 61.406-25.634c16.531-16.53 25.154-38.338 25.154-61.406l-0.047-117.6h-172.998l-0.127 117.6zM167.936 462.336h179.2l19.692-128h-138.525l-60.367 128zM321.536 129.536l-61.44 128h118.548l19.692-128h-76.8zM551.936 129.536h-81.92l-20.48 128h122.88l-20.48-128zM582.656 334.336h-138.24l-20.48 128h174.080l-15.36-128zM700.416 129.536h-77.119l20.799 128h117.76l-61.44-128zM793.649 334.336h-140.029l16.076 128h179.375l-55.422-128z" />
<glyph unicode="&#xe91d;" glyph-name="Buzz" d="M409.6 345.6h51.2v307.2h-204.8c-45.488 0-86.351-19.78-114.476-51.2h101.676c7.070 0 12.8-5.731 12.8-12.8s-5.73-12.8-12.8-12.8h-120.246c-8.995-15.549-15.334-32.822-18.419-51.2h113.065c7.070 0 12.8-5.731 12.8-12.8s-5.73-12.8-12.8-12.8h-115.2c0-17.954 3.091-35.184 8.752-51.2h132.048c7.070 0 12.8-5.731 12.8-12.8s-5.73-12.8-12.8-12.8h-120.246c26.558-45.91 76.193-76.8 133.046-76.8l71.952-287.809c2.849-11.396 13.089-19.391 24.836-19.391h100.824c16.655 0 28.875 15.652 24.836 31.809l-68.849 275.391zM844.8 576v256c0 14.138-11.462 25.6-25.6 25.6h-25.6l-114.29-114.29c-51.887-51.887-120.33-83.396-192.91-89.427v-309.366c72.58-6.031 141.023-37.54 192.91-89.427l114.29-114.291h25.6c14.138 0 25.6 11.462 25.6 25.6v256c42.416 0 76.8 34.385 76.8 76.8s-34.384 76.8-76.8 76.8z" />
<glyph unicode="&#xe91e;" glyph-name="calendar_30" d="M437.301 344.016v0.915c14.95 4.27 26.165 12.36 33.647 24.262 7.474 11.902 11.215 25.635 11.215 41.199 0 14.342-3.204 27.009-9.613 37.994s-14.728 20.292-24.949 27.924c-10.228 7.625-21.744 13.347-34.562 17.167-12.817 3.812-25.635 5.722-38.452 5.722-16.48 0-31.437-2.675-44.862-8.011-13.433-5.343-24.949-12.896-34.562-22.66-9.613-9.771-17.095-21.443-22.431-35.020-5.343-13.582-8.319-28.61-8.927-45.090h61.799c-0.307 16.48 3.734 30.134 12.131 40.971 8.39 10.829 20.828 16.25 37.308 16.25 11.903 0 22.431-3.662 31.587-10.986 9.155-7.324 13.733-17.853 13.733-31.586 0-9.156-2.217-16.48-6.638-21.973-4.427-5.494-10.071-9.692-16.937-12.589-6.867-2.904-14.27-4.656-22.202-5.264-7.94-0.616-15.414-0.616-22.431 0v-45.778c7.932 0 16.251-0.229 24.948-0.686s16.709-2.139 24.033-5.036c7.325-2.904 13.347-7.553 18.083-13.962 4.727-6.409 7.095-15.721 7.095-27.924 0-15.564-5.036-27.852-15.107-36.85-10.071-9.006-22.43-13.505-37.079-13.505-9.463 0-17.624 1.674-24.491 5.036-6.867 3.354-12.588 7.854-17.166 13.505-4.578 5.643-8.090 12.36-10.529 20.142-2.446 7.782-3.82 15.943-4.12 24.491h-61.799c-0.308-18.618 2.36-35.099 8.011-49.439 5.644-14.349 13.655-26.48 24.033-36.393 10.371-9.921 22.96-17.475 37.766-22.66 14.799-5.186 31.2-7.782 49.21-7.782 15.565 0 30.514 2.289 44.862 6.866 14.341 4.578 27.009 11.288 37.994 20.142 10.986 8.848 19.756 19.835 26.322 32.961 6.559 13.118 9.842 28.075 9.842 44.861 0 18.311-5.035 34.026-15.106 47.151-10.071 13.117-23.962 21.664-41.657 25.635zM819.2 780.8h-102.389v25.6h-0.011v12.8c0 21.207-17.192 38.4-38.4 38.4s-38.4-17.193-38.4-38.4v-38.4h0.011v-38.391c-0.004-0.003-0.007-0.006-0.011-0.008v-51.201c0-21.207 17.192-38.4 38.4-38.4s38.4 17.193 38.4 38.4v12.8h0.011v38.392c15.537-11.677 25.589-30.259 25.589-51.192 0-35.347-28.654-64-64-64s-64 28.653-64 64c0 20.938 10.056 39.525 25.6 51.201v38.399h-281.589v25.6h-0.011v12.8c0 21.207-17.193 38.4-38.4 38.4s-38.4-17.193-38.4-38.4v-38.4h0.011v-38.391c-0.003-0.003-0.007-0.005-0.011-0.008v-51.201c0-21.207 17.193-38.4 38.4-38.4s38.4 17.193 38.4 38.4v12.8h0.011v38.392c15.537-11.677 25.589-30.259 25.589-51.192 0-35.347-28.653-64-64-64s-64 28.653-64 64c0 20.938 10.056 39.525 25.6 51.201v38.399h-179.2v-640c0-42.415 34.384-76.8 76.8-76.8h716.8v640c0 42.416-34.384 76.8-76.8 76.8zM844.8 115.2l-653.237 0.019c-21.072 0.16-37.938 17.285-37.938 38.395 0 1.505-0.072 2.986 0.096 4.446h-0.11v392.339h651.47c0.456 0.016 0.911 0.033 1.371 0.033 17.55 0 36.959-15.927 38.348-35.873v-399.36zM708.109 463.494c-10.61 12.817-22.86 21.973-36.758 27.466-13.895 5.494-28.764 8.24-44.6 8.24-15.541 0-30.257-2.746-44.153-8.24-13.895-5.493-26.075-14.649-36.532-27.466-10.464-12.818-18.757-29.834-24.878-51.042-6.128-21.215-9.189-47.38-9.189-78.508 0-32.043 3.061-58.824 9.189-80.339 6.121-21.515 14.414-38.681 24.878-51.499 10.457-12.817 22.637-21.973 36.532-27.466s28.612-8.24 44.153-8.24c15.836 0 30.705 2.746 44.6 8.24 13.897 5.493 26.147 14.649 36.758 27.466 10.604 12.818 18.974 29.984 25.102 51.499 6.121 21.515 9.189 48.296 9.189 80.339 0 31.128-3.068 57.293-9.189 78.508-6.129 21.208-14.499 38.224-25.102 51.042zM677.853 300.755c-0.603-12.974-2.465-25.485-5.604-37.536-3.138-12.060-8.222-22.36-15.24-30.9-7.025-8.548-17.111-12.818-30.257-12.818-12.852 0-22.714 4.27-29.585 12.818-6.877 8.54-11.878 18.84-15.016 30.9-3.138 12.051-5.007 24.562-5.603 37.536-0.603 12.969-0.897 24.034-0.897 33.189 0 5.493 0.070 12.132 0.224 19.914 0.147 7.781 0.673 15.793 1.57 24.033 0.896 8.239 2.388 16.401 4.482 24.49 2.087 8.083 5.001 15.335 8.741 21.745 3.734 6.408 8.516 11.594 14.344 15.564 5.827 3.962 13.069 5.95 21.74 5.95 8.664 0 15.983-1.988 21.964-5.95 5.975-3.97 10.905-9.156 14.792-15.564 3.88-6.41 6.794-13.662 8.741-21.745 1.94-8.089 3.433-16.251 4.483-24.49 1.044-8.24 1.639-16.252 1.793-24.033 0.147-7.782 0.224-14.421 0.224-19.914 0.002-9.155-0.299-20.22-0.894-33.189z" />
<glyph unicode="&#xe91f;" glyph-name="calendar_month" d="M819.189 780.8h-102.389v25.6h-0.011v12.8c0 21.207-17.192 38.4-38.4 38.4s-38.4-17.193-38.4-38.4v-38.4h0.011v-38.391c-0.004-0.003-0.007-0.005-0.011-0.008v-51.201c0-21.207 17.192-38.4 38.4-38.4s38.4 17.193 38.4 38.4v12.8h0.011v38.393c15.538-11.677 25.589-30.259 25.589-51.193 0-35.347-28.654-64-64-64s-64 28.653-64 64c0 20.938 10.056 39.525 25.6 51.201v38.399h-281.589v25.6h-0.011v12.8c0 21.207-17.193 38.4-38.4 38.4s-38.4-17.193-38.4-38.4v-38.4h0.011v-38.391c-0.003-0.003-0.007-0.005-0.011-0.008v-51.201c0-21.207 17.193-38.4 38.4-38.4s38.4 17.193 38.4 38.4v12.8h0.011v38.393c15.537-11.677 25.589-30.259 25.589-51.193 0-35.347-28.653-64-64-64s-64 28.653-64 64c0 20.938 10.056 39.525 25.6 51.201v38.399h-179.2v-640c0-42.415 34.384-76.8 76.8-76.8h716.8v640c0 42.416-34.384 76.8-76.8 76.8zM307.2 115.294h-115.26c-21.207 0-38.4 17.192-38.4 38.4v89.506h153.66v-127.906zM307.2 268.8h-153.661v128h153.661v-128zM307.2 422.4h-153.661v128.094h153.661v-128.094zM691.2 550.494h115.139c21.208 0 38.4-17.192 38.4-38.4v-89.694h-153.539v128.094zM691.2 396.8h153.539v-128h-153.539v128zM486.4 115.294h-153.6v127.906h153.6v-127.906zM486.4 268.8h-153.6v128h153.6v-128zM486.4 422.4h-153.6v128.094h153.6v-128.094zM665.6 115.294h-153.6v127.906h153.6v-127.906zM665.6 268.8h-153.6v128h153.6v-128zM665.6 422.4h-153.6v128.094h153.6v-128.094z" />
<glyph unicode="&#xe920;" glyph-name="calendar-alarm" d="M910.336 794.225c0-216.064 0-432.128 0-648.192-242.005 0-484.011 0-726.016 0-0.93 0.326-1.836 0.774-2.794 0.961-32.354 6.262-53.039 25.352-62.427 56.82-0.961 3.216-1.583 6.534-2.363 9.804 0 216.406 0 432.811 0 649.216 59.572 0 119.145 0 179.202 0 0 13.24-0.082 25.972 0.020 38.702 0.129 15.998 10.2 30.24 25.118 35.759 2.189 0.81 4.401 1.561 6.603 2.339 4.437 0 8.875 0 13.312 0 0.238-0.23 0.437-0.585 0.719-0.671 21.817-6.698 31.025-19.177 31.027-42.081 0.001-11.199 0-22.399 0-33.634 94.171 0 187.8 0 281.602 0 0 13.025-0.079 25.637 0.020 38.248 0.127 16.029 10.181 30.269 25.114 35.797 2.191 0.811 4.405 1.562 6.608 2.341 4.437 0 8.875 0 13.312 0 0.238-0.23 0.437-0.584 0.718-0.671 21.806-6.696 31.024-19.182 31.026-42.061 0.001-11.199 0-22.397 0-34.068 2.342 0 4.171 0 6.001 0 32.553-0.007 65.106 0.154 97.657-0.069 33.457-0.23 63.226-23.075 72.426-55.231 1.253-4.376 2.088-8.869 3.116-13.308zM167.936 632.433c0-2.855 0-5.049 0-7.243 0.004-128.996 0.016-257.992 0.007-386.986-0.002-24.802 16.090-40.966 40.971-40.966 214.822-0.008 429.644-0.006 644.466-0.006 1.808 0 3.616 0 5.756 0 0 2.672 0 4.694 0 6.716 0 128.996 0 257.992 0 386.987 0 24.339-17.156 41.497-41.506 41.497-214.48 0.002-428.961 0.001-643.441 0.001-1.855 0-3.709 0-6.254 0zM373.271 823.569c-0.28-0.536-0.414-0.673-0.414-0.811-0.059-16.889 0.1-33.782-0.213-50.666-0.36-19.379-15.716-35.502-34.901-37.151-19.606-1.686-37.23 11.529-40.943 30.908-0.699 3.647-0.807 7.449-0.827 11.181-0.087 15.435-0.037 30.87-0.037 46.66-19.799-11.837-30.071-41.843-23.442-67.073 7.042-26.806 31.89-46.607 59.417-47.348 28.979-0.78 54.58 17.094 63.301 44.195 8.293 25.776-1.096 56.051-21.94 70.105zM654.338 823.926c-22.139-14.759-31.325-46.596-21.638-72.827 10.111-27.381 38.226-44.97 66.491-41.597 30.736 3.669 53.431 26.227 57.219 57.128 3.126 25.494-12.372 50.485-25.277 56.53 0-16.457-0.020-32.833 0.009-49.209 0.015-8.259-2.165-15.839-6.916-22.606-9.788-13.944-26.814-19.758-42.909-14.723-16.053 5.021-26.852 19.524-26.957 36.499-0.102 16.687-0.023 33.375-0.023 50.805zM513.809 296.376c-40.268-0.002-80.537-0.004-120.805 0.004-4.954 0-10.317-0.488-13.263 4.602-3.061 5.29-0.286 10.132 2.841 14.158 14.195 18.28 18.988 38.796 17.475 61.752-1.255 19.028-0.18 38.2-0.509 57.302-0.882 51.274 30.335 96.079 78.871 112.605 4.505 1.534 6.478 4.129 7.102 8.767 1.493 11.094 6.987 19.552 17.796 23.632 10.356 3.908 20.156 2.501 28.925-4.364 4.72-3.695 7.967-8.549 8.654-14.595 0.925-8.151 5.573-12.396 13.040-15.196 28.828-10.812 49.646-30.553 62.954-58.212 7.274-15.119 10.889-31.135 10.938-47.948 0.083-29.004 0.028-58.010 0.512-87.010 0.084-5.044 1.77-10.433 4.055-14.992 4.112-8.208 9.336-15.854 13.91-23.84 5.808-10.138 2.107-16.432-9.643-16.662-0.342-0.006-0.683-0.004-1.024-0.004-40.61 0.001-81.219 0.001-121.828 0.001zM551.154 285.926c1.018-18.94-15.232-35.884-35.411-37.176-20.286-1.302-38.025 15.336-39.201 37.176 24.756 0 49.495 0 74.612 0z" />
<glyph unicode="&#xe921;" glyph-name="call_invite" d="M802.176 272h-57.6v57.6c0 8.837-7.163 16-16 16h-25.6c-8.837 0-16-7.163-16-16v-57.6h-57.6c-8.837 0-16-7.163-16-16v-25.6c0-8.837 7.163-16 16-16h57.6v-57.6c0-8.836 7.163-16 16-16h25.6c8.837 0 16 7.164 16 16v57.6h57.6c8.837 0 16 7.163 16 16v25.6c0 8.837-7.163 16-16 16zM736.052 421.252c-6.657 0.749-13.42 1.148-20.276 1.148-98.969 0-179.2-80.231-179.2-179.2 0-50.147 20.607-95.474 53.804-128 32.319-31.667 76.574-51.2 125.396-51.2 98.969 0 179.2 80.231 179.2 179.2 0 92.112-69.503 167.979-158.924 178.052zM715.776 111.787c-10.277 0-20.277 1.182-29.875 3.413-58.184 13.526-101.538 65.699-101.538 128 0 72.578 58.835 131.413 131.413 131.413 9.122 0 18.026-0.931 26.624-2.7 59.813-12.308 104.789-65.257 104.789-128.713 0-72.578-58.835-131.413-131.413-131.413zM415.516 157.783c-22.252 33.978-31.177 47.338-44.95 47.338-10.452 0-23.695-7.688-47.682-19.896-2.202-1.119-4.494-1.65-6.854-1.65-21.492 0-48.932 43.948-71.256 87.704-24.772 48.546-46.037 102.365-23.784 113.687 55.845 28.419 57.607 24.226 32.233 90.993-13.289 34.94-20.007 48.84-33.576 48.842-12.362 0-30.413-11.537-64.308-29.212-37.916-21.095-42.699-126.47 24.147-257.533 58.945-115.515 136.738-174.055 179.294-174.055 5.722 0 10.801 1.056 15.118 3.176 75.259 37.971 78.708 33.37 41.616 90.607zM512.616 527.389c83.88 0 151.881 67.961 151.881 151.794s-68.001 151.793-151.881 151.793-151.88-67.961-151.88-151.793c-0.001-83.833 68-151.794 151.88-151.794zM718.017 421.376c6.861 0 13.627-0.399 20.287-1.148-13.493 50.754-47.508 93.15-92.626 117.782-34.742-32.722-81.558-52.784-133.062-52.784s-98.314 20.059-133.057 52.777c-38.668-21.11-69.16-55.28-85.587-96.567 3.015-11.834 3.592-21.315 1.046-30.923-2.694-10.165-8.574-17.423-13.682-22.191-0.372-4.204-0.611-8.445-0.706-12.723h-0.055v-114.27c20.287-36.458 32.425-48.301 37.295-51.959 1.618 0.831 3.182 1.637 4.697 2.417 20.94 10.786 34.775 17.912 49.979 17.912 18.925 0 31.009-11.155 38.452-19.545 8.14-9.177 16.864-22.505 27.91-39.38l0.033-0.051 0.034-0.052c8.649-13.353 15.48-23.901 20.089-33.234 2.949-5.973 6.335-14.069 6.95-23.26h126.533c-33.217 32.526-53.835 77.853-53.835 128 0 98.97 80.276 179.201 179.303 179.201z" />
<glyph unicode="&#xe922;" glyph-name="call" d="M844.013 261.784c-113.986 91.674-107.349 85.159-197.62-5.109-36.144-36.101-127.514 39.321-206.46 118.255-78.931 78.907-154.375 170.303-118.241 206.428 90.677 90.669 96.76 83.618 5.127 197.639-91.683 114.017-88.006 93.527-202.891-23.65-60.428-65.065-3.036-273.367 209.992-486.418 213.073-213.010 426.913-267.828 486.463-209.965 122.411 121.549 132.034 114.771 23.63 202.821z" />
<glyph unicode="&#xe923;" glyph-name="Camera" d="M896.020 704.014h-588.8v38.4c0 21.207-17.192 38.4-38.4 38.4h-76.8c-21.207 0-38.4-17.193-38.4-38.4v-38.4h-76.8v-537.6c0-28.277 22.924-51.2 51.2-51.2h819.2v537.6c0 28.278-22.924 51.2-51.2 51.2zM307.22 576.014c0-14.138-11.462-25.6-25.6-25.6h-102.4c-14.138 0-25.6 11.462-25.6 25.6v25.6c0 14.138 11.462 25.6 25.6 25.6h102.4c14.138 0 25.6-11.462 25.6-25.6v-25.6zM550.42 217.614c-106.038 0-192 85.96-192 192 0 106.038 85.962 192 192 192 106.040 0 192-85.962 192-192 0-106.040-85.961-192-192-192z" />
<glyph unicode="&#xe924;" glyph-name="care-out" d="M921.154 264.605c27.422-12.442 54.874-24.894 82.306-37.336-94.396-218.664-356.791-351.384-610.849-263.568-266.030 91.962-408.848 395.425-288.626 667.766-27.434 12.44-54.874 24.887-82.301 37.324 84.279 201.557 328.863 344.165 581.743 272.374 143.943-40.864 249.726-130.067 313.346-265.614 63.551-135.404 62.527-273.013 4.38-410.947z" />
<glyph unicode="&#xe925;" glyph-name="care" d="M1006.604 959.664c2.213 0.002 4.43 0.22 6.643 0.336 0-334.357 0-689.073 0-1023.426-334.353 0-668.713 0-1003.068 0 0 334.353 0 689.069 0 1023.426 2.215-0.116 4.43-0.336 6.645-0.336zM840.112 290.679c46.715 110.824 47.544 221.396-3.522 330.19-51.119 108.91-136.109 180.582-251.766 213.417-203.19 57.682-399.706-56.9-467.424-218.849 22.035-9.994 44.087-19.995 66.126-29.991-96.596-218.822 18.155-462.644 231.906-536.529 204.13-70.564 414.964 36.072 490.812 211.76-22.041 10-44.099 20.006-66.132 30.001z" />
<glyph unicode="&#xe926;" glyph-name="Casting" d="M571.608 237.898l-54.306-54.306 159.545-159.545c6.949-6.949 16.549-11.247 27.152-11.247 21.208 0 38.4 17.192 38.4 38.4 0 10.604-4.298 20.204-11.247 27.153l-159.545 159.544zM832 499.2h-38.4v345.6c0 21.208-17.192 38.4-38.4 38.4s-38.4-17.192-38.4-38.4v-12.8h-409.6v12.8c0 21.208-17.192 38.4-38.4 38.4s-38.4-17.192-38.4-38.4v-345.6h-38.4c-21.208 0-38.4-17.192-38.4-38.4s17.192-38.4 38.4-38.4h86.494l148.298-148.298 54.306 54.306-93.992 93.992h224.188l-344.048-344.047c-6.949-6.95-11.247-16.55-11.247-27.153 0-21.208 17.192-38.4 38.4-38.4 10.604 0 20.204 4.298 27.153 11.247l398.352 398.353h112.094c21.208 0 38.4 17.192 38.4 38.4s-17.192 38.4-38.4 38.4zM490.527 761.737l21.473 44.663 21.473-44.663 51.535-8.59-38.651-34.356 12.883-51.534-47.24 25.767-47.24-25.767 12.884 51.534-38.652 34.357 51.535 8.589zM716.8 499.2h-409.6v128h409.6v-128z" />
<glyph unicode="&#xe927;" glyph-name="Child_Protection" d="M512.512 561.536c92.987 0 168.369 75.216 168.369 167.999s-75.382 168.001-168.369 168.001-168.369-75.217-168.369-167.999c0-92.785 75.382-168.001 168.369-168.001zM647.361 574.432c-36.116-31.288-83.265-50.229-134.849-50.229s-98.733 18.94-134.849 50.229c-64.506-34.665-108.351-102.668-108.351-180.897v-149.333c0-134.020 108.885-242.666 243.2-242.666s243.2 108.646 243.2 242.666v149.333c0 78.228-43.846 146.231-108.351 180.897zM462.067 450.282c37.075 0 67.129-30.086 67.129-67.2 0-37.112-30.054-67.2-67.129-67.2-37.074 0-67.131 30.088-67.131 67.2 0.001 37.115 30.057 67.2 67.131 67.2zM564.131 178.060c0-55.841-45.223-101.111-101.008-101.111-55.783 0-101.006 45.27-101.006 101.111v62.223c0 31.625 17.144 59.237 42.634 74.045 15.539-13.002 35.527-20.845 57.316-20.845 22.183 0 42.491 8.139 58.145 21.565 26.195-14.618 43.919-42.614 43.919-74.765v-62.224z" />
<glyph unicode="&#xe928;" glyph-name="Cineday_Silhouette" d="M244.38 524.799l646.291 173.173-6.626 24.728c-14.638 54.627-70.787 87.045-125.414 72.408l-642.918-172.27 26.269-98.039h-0.669v-358.4c0-56.554 45.846-102.4 102.4-102.4h665.6v460.8h-664.932zM789.986 777.005l69.333-60.931-98.911-26.503-69.334 60.931 98.912 26.503zM592.164 723.999l69.333-60.931-98.911-26.502-69.332 60.931 98.91 26.502zM394.342 670.993l69.333-60.931-98.91-26.503-69.333 60.931 98.91 26.503zM196.52 617.987l69.334-60.932-98.911-26.503-19.877 74.183 49.454 13.253zM218.112 422.399h-51.2v76.8h102.4l-51.2-76.8zM320.512 422.399l51.2 76.8h102.4l-51.2-76.8h-102.4zM594.97 147.967l-67.098 36.598-67.097-36.598 18.299 73.197-54.898 48.798 73.198 12.199 30.498 63.438 30.499-63.438 73.198-12.199-54.899-48.798 18.3-73.197zM627.712 422.399h-102.4l51.2 76.8h102.4l-51.2-76.8zM832.512 422.399h-102.4l51.2 76.8h102.4l-51.2-76.8z" />
<glyph unicode="&#xe929;" glyph-name="Cinema_ticket_2_for_1" d="M273.331 589.154l41.414 30.025 29.967-41.504-0.898-0.651h506.106l-39.357 54.509c-34.279-24.511-82.751-17.336-107.475 16.907-24.726 34.243-16.364 82.622 17.592 107.582l-89.609 124.106-418.079-303.104h69.098l-8.759 12.13zM625.348 844.364l29.966-41.504-41.413-30.024-29.966 41.503 41.413 30.025zM563.228 799.327l29.966-41.505-41.415-30.023-29.965 41.503 41.414 30.025zM501.106 754.289l29.968-41.503-41.414-30.024-29.966 41.503 41.412 30.024zM438.987 709.254l29.966-41.505-41.413-30.024-29.967 41.503 41.414 30.026zM376.865 664.216l29.968-41.504-41.414-30.024-29.967 41.503 41.413 30.025zM870.4 396.8v153.6h-640v-153.6c42.416 0 76.8-34.384 76.8-76.8s-34.384-76.8-76.8-76.8v-153.6h640v153.6c-42.416 0-76.8 34.384-76.8 76.8s34.384 76.8 76.8 76.8zM307.2 115.2h-51.2v51.2h51.2v-51.2zM563.2 524.8h51.2v-51.2h-51.2v51.2zM486.4 524.8h51.2v-51.2h-51.2v51.2zM409.6 524.8h51.2v-51.2h-51.2v51.2zM307.2 473.6h-51.2v51.2h51.2v-51.2zM384 115.2h-51.2v51.2h51.2v-51.2zM384 473.6h-51.2v51.2h51.2v-51.2zM460.8 115.2h-51.2v51.2h51.2v-51.2zM537.6 115.2h-51.2v51.2h51.2v-51.2zM614.4 115.2h-51.2v51.2h51.2v-51.2zM552.96 253.44l-66.56-35.84 15.36 76.8-51.2 51.2 70.71 9.337 31.438 67.463 31.868-67.24 70.784-9.56-51.2-51.2 15.36-76.8-66.56 35.84zM691.2 115.2h-51.2v51.2h51.2v-51.2zM691.2 473.6h-51.2v51.2h51.2v-51.2zM768 115.2h-51.2v51.2h51.2v-51.2zM768 473.6h-51.2v51.2h51.2v-51.2zM844.8 166.4v-51.2h-51.2v51.2h51.2zM793.6 524.8h51.2v-51.2h-51.2v51.2zM194.924 388.608c3.171 1.624 6.467 3.044 9.876 4.231v83.556l-27.785-19.836-30.317 41.346 41.897 29.911 16.205-22.103v65.166l-94.208-67.257 84.332-115.015z" />
<glyph unicode="&#xe92a;" glyph-name="Clock" d="M512 883.2c-240.354 0-435.2-194.846-435.2-435.2s194.846-435.2 435.2-435.2c240.355 0 435.2 194.846 435.2 435.2s-194.845 435.2-435.2 435.2zM688.657 309.231c-7.498-7.498-17.326-11.247-27.153-11.247s-19.655 3.749-27.153 11.247l-150.016 150.016c-0.022 0.022-0.041 0.044-0.062 0.066-0.426 0.427-0.84 0.863-1.245 1.309-0.209 0.23-0.406 0.467-0.607 0.7-0.206 0.24-0.417 0.475-0.618 0.72-0.244 0.298-0.477 0.603-0.712 0.906-0.145 0.188-0.293 0.372-0.435 0.561-0.249 0.335-0.485 0.675-0.722 1.016-0.117 0.169-0.238 0.336-0.354 0.508-0.234 0.35-0.458 0.706-0.68 1.062-0.109 0.173-0.22 0.345-0.325 0.52-0.211 0.349-0.411 0.703-0.609 1.058-0.109 0.195-0.221 0.388-0.326 0.585-0.179 0.334-0.348 0.671-0.517 1.009-0.115 0.229-0.231 0.457-0.341 0.689-0.146 0.309-0.284 0.621-0.421 0.933-0.119 0.27-0.24 0.539-0.353 0.812-0.115 0.278-0.222 0.558-0.33 0.838-0.122 0.314-0.244 0.627-0.357 0.945-0.087 0.244-0.167 0.49-0.249 0.737-0.119 0.355-0.237 0.711-0.346 1.071-0.066 0.218-0.124 0.437-0.186 0.655-0.109 0.387-0.217 0.774-0.314 1.165-0.051 0.205-0.095 0.411-0.142 0.616-0.094 0.403-0.186 0.807-0.266 1.215-0.041 0.209-0.075 0.419-0.112 0.628-0.073 0.402-0.145 0.804-0.204 1.21-0.036 0.242-0.062 0.485-0.093 0.727-0.047 0.374-0.098 0.746-0.135 1.124-0.031 0.321-0.050 0.644-0.073 0.966-0.022 0.301-0.050 0.6-0.065 0.904-0.031 0.632-0.048 1.265-0.048 1.898v281.6c0 21.208 17.192 38.4 38.4 38.4s38.4-17.192 38.4-38.4v-265.694l138.769-138.769c14.998-14.996 14.998-39.31 0.002-54.307z" />
<glyph unicode="&#xe92b;" glyph-name="Cloud_backup" d="M889.705 414.213c4.11 19.148 6.295 39.011 6.295 59.387 0 155.523-126.076 281.6-281.6 281.6-88.6 0-167.628-40.931-219.248-104.9-7.728 1.633-15.739 2.5-23.952 2.5-59.819 0-108.984-45.595-114.65-103.927-101.29-12.356-179.75-98.646-179.75-203.273 0-113.108 91.692-204.8 204.8-204.8h512c84.831 0 153.6 68.769 153.6 153.6 0 48.455-22.444 91.661-57.495 119.813zM614.4 396.8v-153.6c0-14.138-11.462-25.6-25.6-25.6h-102.4c-14.138 0-25.6 11.462-25.6 25.6v153.6h-102.4l161.098 161.098c9.998 9.997 26.207 9.997 36.204 0l161.099-161.098h-102.4z" />
<glyph unicode="&#xe92c;" glyph-name="Collective_class_training" d="M346.112 246.439c-44.117 11.397-76.8 51.534-76.8 99.161v115.2c0 28.303 6.192 56.010 18.049 81.339-42.433 1.845-80.853 19.144-109.776 46.413-51.817-25.539-87.473-78.878-87.473-140.552v-121.977c0-39.921 32.783-72.583 72.704-72.583v-189.44c0-28.277 22.501-51.2 50.778-51.2h152.136c-12.188 13.598-19.618 31.545-19.618 51.2v182.439zM847.438 588.552c-28.922-27.269-67.342-44.568-109.775-46.413 11.857-25.33 18.049-53.036 18.049-81.339v-115.2c0-47.627-32.683-87.764-76.8-99.161v-182.439c0-19.655-7.43-37.602-19.618-51.2h152.136c28.277 0 50.778 22.923 50.778 51.2v189.44c39.92 0 72.704 32.663 72.704 72.583v121.977c0 61.674-35.656 115.014-87.474 140.552zM678.912 742.4c0-22.453-4.403-44.247-13.087-64.778-6.271-14.826-14.566-28.52-24.742-40.873l7.405-3.65c26.896-13.256 50.232-32.601 68.276-56.408 4.388-0.456 8.84-0.691 13.348-0.691 70.692 0 128 57.308 128 128s-57.308 128-128 128c-24.542 0-47.468-6.912-66.945-18.888 0.919-1.959 1.812-3.933 2.658-5.934 8.684-20.531 13.087-42.325 13.087-64.778zM512.512 601.6c77.762 0 140.8 63.038 140.8 140.8s-63.038 140.8-140.8 140.8-140.8-63.038-140.8-140.8 63.038-140.8 140.8-140.8zM730.112 345.6v115.2c0 65.53-37.884 122.202-92.941 149.336-32.544-30.683-76.402-49.496-124.659-49.496s-92.115 18.813-124.659 49.496c-55.057-27.134-92.941-83.806-92.941-149.336v-115.2c0-42.416 34.384-76.8 76.8-76.8v-204.8c0-28.277 22.923-51.2 51.2-51.2h179.2c28.277 0 51.2 22.923 51.2 51.2v204.8c42.416 0 76.8 34.384 76.8 76.8zM294.912 576c4.508 0 8.96 0.236 13.348 0.691 18.044 23.807 41.379 43.152 68.276 56.408l7.405 3.65c-10.177 12.353-18.471 26.046-24.742 40.873-8.684 20.531-13.087 42.325-13.087 64.778s4.403 44.247 13.087 64.778c0.846 2.001 1.739 3.975 2.658 5.934-19.478 11.976-42.403 18.888-66.945 18.888-70.693 0-128-57.308-128-128s57.307-128 128-128z" />
<glyph unicode="&#xe92d;" glyph-name="Comedy_channel" d="M716.8 857.6h-537.6v-486.4c0-183.8 148.999-332.8 332.8-332.8h0.001c183.8 0 332.799 149 332.799 332.8v358.4c0 70.692-57.308 128-128 128zM266.22 570.864c-4.181-3.143-10.213-0.224-10.22 5.006v0.13c0 56.63 45.969 102.523 102.627 102.4 53.949-0.117 98.99-42.708 102.009-96.573 0.112-1.99 0.166-3.968 0.164-5.933-0.006-5.24-6.035-8.176-10.224-5.027-25.675 19.294-57.588 30.733-92.176 30.733-34.59 0-66.505-11.44-92.18-30.736zM716.8 371.2c0-113.108-91.692-204.8-204.8-204.8s-204.8 91.692-204.8 204.8v0.26c0.014 10.436 12.022 16.344 20.362 10.071 51.363-38.627 115.222-61.531 184.438-61.531s133.075 22.904 184.438 61.531c8.34 6.273 20.348 0.365 20.362-10.071v-0.26zM757.776 570.867c-25.675 19.294-57.588 30.733-92.176 30.733-34.59 0-66.505-11.44-92.18-30.736-4.181-3.143-10.214-0.224-10.22 5.006v0.13c0 56.63 45.969 102.523 102.627 102.4 53.949-0.117 98.99-42.708 102.009-96.573 0.112-1.99 0.166-3.968 0.164-5.933-0.006-5.24-6.035-8.176-10.224-5.027z" />
<glyph unicode="&#xe92e;" glyph-name="Conference_call" d="M307.712 601.6c14.453 0 28.394 2.181 41.52 6.226-2.040 10.411-3.12 21.165-3.12 32.174 0 66.015 38.442 123.050 94.162 149.943-19.501 54.366-71.485 93.257-132.562 93.257-77.762 0-140.8-63.038-140.8-140.8s63.038-140.8 140.8-140.8zM371.712 640c0-77.762 63.038-140.8 140.8-140.8 14.453 0 28.394 2.181 41.52 6.226-2.040 10.411-3.12 21.166-3.12 32.174 0 66.015 38.442 123.050 94.162 149.943-19.501 54.366-71.485 93.257-132.562 93.257-77.762 0-140.8-63.038-140.8-140.8zM576.512 537.6c0-77.762 63.038-140.8 140.8-140.8s140.8 63.038 140.8 140.8-63.038 140.8-140.8 140.8-140.8-63.038-140.8-140.8zM384.067 534.207c-8.703 10.555-16.122 22.204-22.038 34.704-17.153-5.368-35.395-8.272-54.317-8.272-48.257 0-92.116 18.813-124.659 49.496-55.056-27.134-92.941-83.806-92.941-149.336v-166.4c0-42.416 34.385-76.8 76.8-76.8h102.4v140.8c0 25.909 5.080 51.056 15.099 74.743 9.672 22.866 23.512 43.397 41.137 61.021 16.978 16.978 36.658 30.432 58.519 40.044zM588.867 431.807c-8.703 10.555-16.122 22.204-22.038 34.704-17.153-5.368-35.395-8.272-54.317-8.272-48.257 0-92.115 18.813-124.659 49.496-55.057-27.134-92.941-83.806-92.941-149.336v-166.4c0-42.416 34.384-76.8 76.8-76.8h102.4v140.8c0 25.908 5.080 51.056 15.099 74.743 9.671 22.866 23.512 43.396 41.137 61.021 16.978 16.978 36.658 30.433 58.519 40.044zM841.971 405.336c-32.543-30.683-76.402-49.496-124.659-49.496s-92.115 18.813-124.659 49.496c-55.056-27.134-92.941-83.806-92.941-149.336v-166.4c0-42.416 34.384-76.8 76.8-76.8h358.4v243.2c0 65.53-37.884 122.202-92.941 149.336zM856.086 70.030c-16.648-16.177-76.431-0.852-136.001 58.7-59.555 59.563-75.601 117.797-58.707 135.988 32.119 32.759 31.091 38.487 56.723 6.611 25.617-31.876 23.917-29.905-1.434-55.254-10.102-10.099 10.99-35.651 33.057-57.711 22.071-22.067 47.615-43.153 57.72-33.060 25.238 25.236 23.382 27.058 55.248 1.428 30.305-24.617 27.615-22.722-6.607-56.703z" />
<glyph unicode="&#xe92f;" glyph-name="connection" d="M158.006 508.405c0 178.152 145.167 322.543 324.297 322.543 179.128 0 324.299-144.391 324.299-322.543 0-44.175-8.959-86.253-25.128-124.582l30.637-52.527c28.671 52.685 44.97 112.999 44.97 177.11 0 205.85-167.781 372.734-374.778 372.734-206.994 0-374.777-166.884-374.777-372.734 0-198.822 156.527-361.276 353.723-372.138l-31.465 53.835c-154.143 24.958-271.778 157.938-271.778 318.302zM701.27 521.338l43.352-74.328c4.3 19.071 6.588 38.904 6.588 59.278 0 148.545-120.392 268.96-268.906 268.96s-268.909-120.415-268.909-268.96c0-117.359 75.161-217.129 179.959-253.856l-48.227 82.51c-50.174 40.234-82.311 102.039-82.311 171.346 0 121.224 98.287 219.532 219.487 219.532 116.143 0 211.23-90.278 218.967-204.483zM326.925 564.034l176.864 103.949c-7.033 0.906-14.204 1.376-21.486 1.376-70.504 0.001-130.767-43.607-155.379-105.326zM791.588 297.907c0.145 0.211 0.29 0.421 0.435 0.631l-28.627 48.978c-0.122-0.214-0.244-0.429-0.367-0.642l-32.535 55.783c0.094 0.225 0.183 0.453 0.275 0.679l-33.69 57.641c-0.053-0.254-0.1-0.51-0.153-0.764l-105.418 180.743c-8.446 14.486-25.445 19.923-41.599 14.108-0.108 0.049-106.563-62.162-106.563-62.162l-131.757-77.273c-12.265-10.205-15.702-28.064-7.391-42.311l100.573-172.442c-0.101 0.038-0.201 0.074-0.302 0.113l35.141-60.251c0.086-0.013 0.171-0.025 0.256-0.039l31.869-54.64c-0.079 0.002-0.159 0.005-0.237 0.006l29.119-49.927c0.076 0.004 0.15 0.009 0.226 0.012l58.112-99.64c9.262-15.871 29.6-21.263 45.471-12.005l229.915 134.148c15.847 9.243 21.186 29.626 11.929 45.494l-54.685 93.759zM421.275 551.969l43.096 25.143c3.945 2.304 9.045 0.98 11.358-2.991 2.313-3.967 0.963-9.071-2.977-11.37l-43.098-25.146c-3.994-2.328-9.079-0.978-11.39 2.989-2.315 3.966-0.982 9.046 3.011 11.376zM709.3 107.59c-9.503-5.544-21.73-2.323-27.278 7.192-1.916 3.282-2.763 6.886-2.691 10.429-0.301 7.154 3.257 14.23 9.857 18.081 9.553 5.574 21.753 2.34 27.306-7.174 1.914-3.285 2.763-6.889 2.693-10.431 0.301-7.148-3.254-14.221-9.887-18.096zM566.664 89.827l-217.897 373.604 229.847 134.105 217.9-373.6-229.85-134.109z" />
<glyph unicode="&#xe930;" glyph-name="Contact_Card" d="M319.488 613.888c-42.416 0-76.8-34.384-76.8-76.8s34.384-76.8 76.8-76.8 76.8 34.384 76.8 76.8-34.384 76.8-76.8 76.8zM870.4 793.088h-793.6v-614.4c0-42.416 34.385-76.8 76.8-76.8h141.312v50.176c-7.854 7.031-13.312 17.814-13.312 29.184 0 21.208 17.192 38.4 38.4 38.4s38.4-17.192 38.4-38.4c0-11.37-5.458-22.153-13.312-29.184v-50.176h332.8v51.2c-7.854 7.031-12.288 16.79-12.288 28.16 0 21.208 17.192 38.4 38.4 38.4s38.4-17.192 38.4-38.4c0-11.37-5.458-21.129-13.312-28.16v-51.2h218.112v614.4c0 42.415-34.384 76.8-76.8 76.8zM486.4 332.288c0-14.138-11.462-25.6-25.6-25.6h-25.6v10.24h-0.026c0.012 0.682 0.026 1.363 0.026 2.048 0 63.907-51.576 115.712-115.2 115.712s-115.2-51.805-115.2-115.712c0-0.685 0.014-1.366 0.026-2.048h-0.026v-10.24h-25.6c-14.138 0-25.6 11.462-25.6 25.6v307.2c0 14.138 11.462 25.6 25.6 25.6h281.6c14.138 0 25.6-11.462 25.6-25.6v-307.2zM742.4 357.888h-153.6c-14.138 0-25.6 11.461-25.6 25.6s11.462 25.6 25.6 25.6h153.6c14.138 0 25.6-11.461 25.6-25.6s-11.462-25.6-25.6-25.6zM844.8 485.888h-256c-14.138 0-25.6 11.461-25.6 25.6s11.462 25.6 25.6 25.6h256c14.138 0 25.6-11.461 25.6-25.6s-11.462-25.6-25.6-25.6zM844.8 613.888h-256c-14.138 0-25.6 11.461-25.6 25.6s11.462 25.6 25.6 25.6h256c14.138 0 25.6-11.461 25.6-25.6s-11.462-25.6-25.6-25.6z" />
<glyph unicode="&#xe931;" glyph-name="Control_Centre" d="M844.8 601.6h-21.325c-47.478 164.557-169.023 281.6-311.475 281.6s-263.996-117.043-311.475-281.6h-21.325c-56.554 0-102.4-45.846-102.4-102.4v-102.4c0-56.554 45.846-102.4 102.4-102.4h21.325c47.479-164.557 169.023-281.6 311.475-281.6s263.996 117.043 311.475 281.6h21.325c56.554 0 102.4 45.846 102.4 102.4v102.4c0 56.554-45.846 102.4-102.4 102.4zM769.932 294.357c-5.758-17.801-12.461-34.87-20.056-51.157h-165.463c-10.808 30.57-40.407 52.262-74.926 51.16-39.619-1.265-72.095-33.025-74.178-72.61-2.331-44.3 32.899-80.95 76.69-80.95 33.437 0 61.868 21.375 72.413 51.2h136.913c-4.684-7.087-9.576-13.967-14.672-20.631-26.244-34.319-56.488-61.088-89.894-79.566-33.357-18.448-68.602-27.804-104.76-27.804s-71.404 9.355-104.76 27.803c-33.406 18.478-63.651 45.247-89.894 79.566-27.021 35.335-48.31 76.714-63.277 122.988-15.705 48.557-23.669 100.25-23.669 153.644s7.964 105.087 23.669 153.643c4.149 12.828 8.789 25.275 13.902 37.323 6.203 14.617 21.506 23.184 37.225 20.939 39.677-5.665 110.898-27.395 206.804-103.348 116.198-92.022 239.662-66.665 277.692-44.769 2.585-20.924 3.908-42.213 3.908-63.787 0-53.394-7.963-105.087-23.668-153.643z" />
<glyph unicode="&#xe932;" glyph-name="Control_My-Data" d="M452.134 496.285c-4.227-5.298-7.833-11.231-10.627-17.767-16.703-39.071 1.43-84.292 40.502-101.004s84.285 1.411 100.988 40.482c2.793 6.536 4.591 13.243 5.5 19.961l0.016-0.007 62.31 338.509-198.69-280.173zM512 883.2c-240.354 0-435.2-194.846-435.2-435.2s194.846-435.2 435.2-435.2c240.354 0 435.2 194.846 435.2 435.2s-194.846 435.2-435.2 435.2zM304.037 548.106l-9.797-23.651-118.1 48.918c1.769 4.731 3.618 9.439 5.593 14.109 1.357 3.207 2.772 6.38 4.216 9.538l0.024-0.010c16.104 35.178 37.738 67.292 63.782 95.245l54.354-54.355c-19.020-20.816-34.963-44.492-47.095-70.316l47.023-19.476zM660.443 687.307l-46.729-253.864c-1.285-8.789-3.697-17.365-7.177-25.507-10.768-25.188-30.698-44.671-56.121-54.862-25.421-10.19-53.29-9.869-78.474 0.902-37.811 16.174-62.244 53.2-62.248 94.331-0.001 13.879 2.783 27.429 8.274 40.273 3.47 8.119 7.988 15.771 13.438 22.762l148.872 209.902c-21.861 5.448-44.727 8.356-68.277 8.356-73.131 0-139.732-27.891-189.786-73.602l-54.355 54.354c59.985 55.855 139.14 91.39 226.52 95.622 0.461 0.022 0.925 0.031 1.386 0.051 2.446 0.109 4.895 0.206 7.354 0.266 2.954 0.071 5.914 0.109 8.88 0.109 2.772 0 5.538-0.040 8.3-0.101 1.081-0.025 2.158-0.067 3.238-0.101 1.622-0.051 3.243-0.106 4.861-0.179 1.419-0.063 2.834-0.14 4.248-0.22 1.178-0.066 2.355-0.14 3.531-0.218 1.716-0.114 3.431-0.233 5.142-0.372 0.626-0.050 1.25-0.109 1.875-0.163 29.149-2.52 57.3-8.526 84.036-17.601l0.027 0.039c8.16-2.774 16.24-5.84 24.225-9.217 8.047-3.404 15.939-7.087 23.672-11.041l-0.009-0.046c29.626-15.178 56.865-34.355 80.998-56.825l-54.357-54.357c-12.757 11.653-26.597 22.139-41.341 31.309zM729.76 524.455l-9.796 23.651 47.024 19.478c-12.132 25.824-28.075 49.5-47.096 70.316l54.357 54.357c0.002-0.002 0.004-0.005 0.007-0.007 26.040-27.951 47.674-60.063 63.777-95.238l0.018 0.008c1.445-3.158 2.86-6.332 4.216-9.538 1.975-4.67 3.824-9.378 5.593-14.109l-118.101-48.919z" />
<glyph unicode="&#xe933;" glyph-name="Copy" d="M537.6 729.6h128l-153.6 153.6v-128c0-14.138 11.462-25.6 25.6-25.6zM460.8 755.2v128h-307.2v-588.8c0-42.415 34.385-76.8 76.8-76.8h102.4v128h-76.8c-14.138 0-25.6 11.462-25.6 25.6s11.462 25.6 25.6 25.6h76.8v51.2h-76.8c-14.138 0-25.6 11.462-25.6 25.6s11.462 25.6 25.6 25.6h76.8v51.2h-76.8c-14.138 0-25.6 11.462-25.6 25.6s11.462 25.6 25.6 25.6h76.8v102.4h147.572c-12.166 13.588-19.572 31.526-19.572 51.2zM742.4 524.8h128l-153.6 153.6v-128c0-14.138 11.462-25.6 25.6-25.6zM665.6 550.4v128h-307.2v-588.8c0-42.415 34.384-76.8 76.8-76.8h435.2v460.8h-128c-42.416 0-76.8 34.385-76.8 76.8zM768 140.8h-307.2c-14.138 0-25.6 11.462-25.6 25.6s11.462 25.6 25.6 25.6h307.2c14.138 0 25.6-11.462 25.6-25.6s-11.462-25.6-25.6-25.6zM768 243.2h-307.2c-14.138 0-25.6 11.462-25.6 25.6s11.462 25.6 25.6 25.6h307.2c14.138 0 25.6-11.462 25.6-25.6s-11.462-25.6-25.6-25.6zM793.6 371.2c0-14.138-11.462-25.6-25.6-25.6h-307.2c-14.138 0-25.6 11.462-25.6 25.6s11.462 25.6 25.6 25.6h307.2c14.138 0 25.6-11.462 25.6-25.6z" />
<glyph unicode="&#xe934;" glyph-name="Courier" d="M944.366 391.122c-6.929 11.938-22.277 16.028-34.279 9.136l-260.786-149.755-301.131 518.765c-34.648 59.688-111.385 80.139-171.397 45.678l-86.929-49.918c-12.002-6.892-16.115-22.157-9.185-34.095s22.277-16.028 34.279-9.135l86.929 49.918c35.95 20.643 82.083 8.349 102.838-27.407l250.94-432.299c-26.037 3.14-53.278-1.781-77.741-15.828-60.012-34.462-80.574-110.785-45.926-170.474s111.385-80.138 171.396-45.677c44.557 25.586 67.357 74.248 61.97 122.046l269.837 154.951c12.002 6.894 16.115 22.157 9.184 34.095zM565.733 144.874c-23.966-13.762-54.722-5.565-68.559 18.272s-5.596 54.427 18.37 68.189 54.722 5.566 68.559-18.271 5.596-54.427-18.37-68.19zM645.685 306.648c7.070-12.179 22.721-16.353 34.964-9.322l216.438 124.288c12.251 7.035 16.447 22.623 9.373 34.811l-124.955 215.259c-7.070 12.18-22.721 16.353-34.963 9.322l-216.438-124.286c-12.25-7.035-16.447-22.623-9.373-34.811l124.954-215.261z" />
<glyph unicode="&#xe935;" glyph-name="Delete" d="M656.816 448l181.019 181.019c19.995 19.995 19.995 52.413 0 72.408l-72.408 72.408c-19.995 19.995-52.413 19.995-72.408 0l-181.019-181.019-181.019 181.019c-19.995 19.995-52.413 19.995-72.408 0l-72.408-72.408c-19.995-19.995-19.995-52.413 0-72.408l181.019-181.019-181.019-181.019c-19.995-19.995-19.995-52.413 0-72.408l72.408-72.408c19.995-19.995 52.413-19.995 72.408 0l181.019 181.019 181.019-181.019c19.995-19.995 52.413-19.995 72.408 0l72.408 72.408c19.995 19.995 19.995 52.413 0 72.408l-181.019 181.019z" />
<glyph unicode="&#xe936;" glyph-name="deplacement-out" d="M1024.468 561.013c-0.403-61.263-17.411-118.901-45.192-173.693-30.039-59.25-69.417-111.984-115.889-159.036-92.381-93.533-190.516-180.575-298.15-256.441-14.965-10.548-30.962-19.628-46.331-29.628-4.714-3.064-8.609-2.813-13.426-0.011-42.589 24.824-81.994 54.177-120.5 84.75-73.208 58.139-142.938 120.26-209.285 186.085-52.025 51.611-97.155 108.645-130.565 174.303-23.547 46.276-39.615 94.919-43.95 146.857-6.408 76.743 13.307 146.723 56.859 209.966 43.452 63.093 101.817 108.936 169.279 143.76 64.297 33.19 132.603 53.763 204.383 62.725 130.171 16.253 253.898-5.011 370.378-65.443 68.061-35.314 126.034-82.865 168.652-147.502 35.175-53.346 53.485-111.986 53.738-176.692z" />
<glyph unicode="&#xe937;" glyph-name="deplacement" d="M0-64c0 341.333 0 682.667 0 1024 341.333 0 682.664 0 1023.998 0 0-341.333 0-682.664 0-1024-341.331 0-682.664 0-1023.998 0zM924.841 540.59c-0.204 52.146-14.958 99.409-43.303 142.401-34.344 52.094-81.071 90.417-135.924 118.878-93.878 48.705-193.59 65.843-298.502 52.743-57.849-7.223-112.901-23.804-164.721-50.553-54.37-28.066-101.409-65.013-136.428-115.862-35.103-50.97-50.988-107.368-45.825-169.22 3.494-41.861 16.444-81.064 35.421-118.358 26.929-52.917 63.301-98.885 105.228-140.478 53.47-53.049 109.67-103.121 168.672-149.973 31.034-24.647 62.792-48.297 97.116-68.303 3.883-2.263 7.015-2.465 10.821 0.009 12.388 8.055 25.279 15.373 37.34 23.874 86.745 61.148 165.838 131.295 240.291 206.678 37.449 37.921 69.185 80.423 93.4 128.176 22.386 44.161 36.089 90.614 36.416 139.989z" />
<glyph unicode="&#xe938;" glyph-name="Device_desktop_computer" d="M895.908 729.6h-127.908v-102.4h128v-25.6h-128v-25.6h128v-25.6h-128v-256c0-42.415-34.77-76.8-77.261-76.8h-25.139v-51.2c0-28.277 22.964-51.2 51.292-51.2h179.016c28.328 0 51.292 22.923 51.292 51.2v512c0 28.277-22.964 51.2-51.292 51.2zM870.262 166.4c-14.164 0-25.646 11.462-25.646 25.6s11.482 25.6 25.646 25.6c14.163 0 25.646-11.462 25.646-25.6s-11.483-25.6-25.646-25.6zM588.8 166.4h-102.4v51.2h-153.6v-51.2h-102.4c-14.138 0-25.6-11.462-25.6-25.6v-25.6h409.6v25.6c0 14.138-11.462 25.6-25.6 25.6zM741.376 295.424v435.2c0 28.277-22.923 51.2-51.2 51.2h-562.176c-28.277 0-51.2-22.923-51.2-51.2v-435.2c0-28.277 22.923-51.2 51.2-51.2h562.176c28.277 0 51.2 22.923 51.2 51.2zM128 729.6h563.2v-384h-563.2v384zM408.576 269.824c-14.138 0-25.6 11.462-25.6 25.6s11.462 25.6 25.6 25.6 25.6-11.462 25.6-25.6-11.462-25.6-25.6-25.6z" />
<glyph unicode="&#xe939;" glyph-name="device_fixed-line_phone" d="M358.4 115.2h204.8c28.277 0 51.2 22.923 51.2 51.2v588.8c0 28.277-22.923 51.2-51.2 51.2h-204.8v51.2c0 14.138-11.462 25.6-25.6 25.6s-25.6-11.462-25.6-25.6v-691.2c0-28.277 22.923-51.2 51.2-51.2zM499.2 166.4h-76.8c-7.069 0-12.8 5.731-12.8 12.8s5.731 12.8 12.8 12.8h76.8c7.069 0 12.8-5.731 12.8-12.8s-5.731-12.8-12.8-12.8zM460.8 396.8c14.138 0 25.6-11.462 25.6-25.601s-11.462-25.6-25.6-25.6-25.6 11.462-25.6 25.6c0 14.139 11.462 25.601 25.6 25.601zM435.2 447.999c0 14.139 11.462 25.601 25.6 25.601s25.6-11.462 25.6-25.601c0-14.138-11.462-25.6-25.6-25.6s-25.6 11.462-25.6 25.6zM460.8 320c14.138 0 25.6-11.462 25.6-25.601s-11.462-25.6-25.6-25.6-25.6 11.461-25.6 25.6 11.462 25.601 25.6 25.601zM537.6 268.799c-14.138 0-25.6 11.461-25.6 25.6s11.462 25.601 25.6 25.601 25.6-11.462 25.6-25.601-11.462-25.6-25.6-25.6zM537.6 345.599c-14.138 0-25.6 11.462-25.6 25.6s11.462 25.601 25.6 25.601 25.6-11.462 25.6-25.601c0-14.138-11.462-25.6-25.6-25.6zM537.6 422.399c-14.138 0-25.6 11.462-25.6 25.6s11.462 25.601 25.6 25.601 25.6-11.462 25.6-25.601c0-14.138-11.462-25.6-25.6-25.6zM358.4 755.2h204.8v-230.4h-204.8v230.4zM384 473.6c14.138 0 25.6-11.462 25.6-25.601s-11.462-25.6-25.6-25.6-25.6 11.462-25.6 25.6c0 14.139 11.462 25.601 25.6 25.601zM384 396.8c14.138 0 25.6-11.462 25.6-25.601s-11.462-25.6-25.6-25.6-25.6 11.462-25.6 25.6c0 14.139 11.462 25.601 25.6 25.601zM384 320c14.138 0 25.6-11.462 25.6-25.601s-11.462-25.6-25.6-25.6-25.6 11.461-25.6 25.6 11.462 25.601 25.6 25.601zM793.6 217.6h-153.6v-51.2c0-42.415-34.384-76.8-76.8-76.8h-205.824c-42.416 0-76.8 34.385-76.8 76.8v51.2h-50.176c-28.277 0-51.2-22.923-51.2-51.2v-153.6h665.6v153.6c0 28.277-22.923 51.2-51.2 51.2zM768 115.2c-14.138 0-25.6 11.462-25.6 25.6s11.462 25.6 25.6 25.6 25.6-11.462 25.6-25.6-11.462-25.6-25.6-25.6z" />
<glyph unicode="&#xe93a;" glyph-name="device_smart_phone" d="M716.852 883.2h-409.704c-28.248 0-51.148-22.923-51.148-51.2v-768c0-28.277 22.9-51.2 51.148-51.2h409.704c28.248 0 51.148 22.923 51.148 51.2v768c0 28.277-22.9 51.2-51.148 51.2zM473.6 857.6h76.8c7.040 0 12.8-5.76 12.8-12.8s-5.76-12.8-12.8-12.8h-76.8c-7.040 0-12.8 5.76-12.8 12.8s5.76 12.8 12.8 12.8zM512 38.4c-14.138 0-25.6 11.462-25.6 25.6s11.462 25.6 25.6 25.6 25.6-11.462 25.6-25.6-11.462-25.6-25.6-25.6zM716.8 115.2h-409.6v691.2h409.6v-691.2z" />
<glyph unicode="&#xe93b;" glyph-name="device_tablet" d="M793.6 883.2h-563.2c-28.277 0-51.2-22.923-51.2-51.2v-768c0-28.277 22.923-51.2 51.2-51.2h563.2c28.277 0 51.2 22.923 51.2 51.2v768c0 28.277-22.923 51.2-51.2 51.2zM512 38.4c-14.138 0-25.6 11.462-25.6 25.6s11.462 25.6 25.6 25.6 25.6-11.462 25.6-25.6-11.462-25.6-25.6-25.6zM793.6 115.2h-563.2v716.8h563.2v-716.8z" />
<glyph unicode="&#xe93c;" glyph-name="device_TV" d="M896 780.8h-768c-28.16 0-51.2-23.552-51.2-51.712v-486.4c0-28.16 23.040-50.688 51.2-50.688h76.8v-76.8h614.4v76.8h76.8c28.16 0 51.2 22.528 51.2 50.688v486.4c0 28.16-23.040 51.712-51.2 51.712zM512 153.6c-14.138 0-25.6 11.462-25.6 25.6s11.462 25.6 25.6 25.6 25.6-11.462 25.6-25.6-11.462-25.6-25.6-25.6zM896 243.2h-768v486.4h768v-486.4z" />
<glyph unicode="&#xe93d;" glyph-name="Dialler" d="M512 883.2c-240.354 0-435.2-194.846-435.2-435.2s194.846-435.2 435.2-435.2 435.2 194.846 435.2 435.2-194.846 435.2-435.2 435.2zM718.355 186.153c-40.409-39.222-185.512-2.064-330.095 142.323-144.553 144.415-183.498 285.609-142.493 329.713 77.957 79.427 75.461 93.317 137.674 16.032 62.179-77.288 58.051-72.509-3.479-133.968-24.52-24.486 26.674-86.439 80.234-139.926 53.569-53.504 115.569-104.629 140.095-80.158 61.254 61.187 56.751 65.604 134.097 3.463 73.557-59.683 67.028-55.089-16.035-137.479z" />
<glyph unicode="&#xe93e;" glyph-name="Discussion_more" d="M512 857.6c-240.354 0-435.2-154.73-435.2-345.6 0-147.931 117.043-274.15 281.6-323.455v-175.745l153.6 153.6c240.354 0 435.2 154.73 435.2 345.6s-194.846 345.6-435.2 345.6zM294.4 448c-35.346 0-64 28.654-64 64s28.654 64 64 64 64-28.654 64-64-28.654-64-64-64zM512 448c-35.346 0-64 28.654-64 64s28.654 64 64 64 64-28.654 64-64-28.654-64-64-64zM729.6 448c-35.346 0-64 28.654-64 64s28.654 64 64 64 64-28.654 64-64-28.654-64-64-64z" />
<glyph unicode="&#xe93f;" glyph-name="Document_compose" d="M685.256 678.4h159.544l-204.8 204.8v-153.6c0.002-28.276 20.134-51.2 45.256-51.2zM966.649 431.646c-0.285 9.719-4.294 18.93-11.288 25.938l-62.149 62.18-18.093-18.092-30.32-30.12v155.648h-153.859c-56.524 0-102.137 45.848-102.141 102.4v153.6h-409.609v-818.969h0.006c0-0.078-0.006-0.153-0.006-0.231 0-28.277 22.913-51.2 51.175-51.2h614.434v280.576l110.174 110.178c0.384 0.361 0.763 0.737 1.144 1.134 6.991 7.142 10.825 16.944 10.531 26.958zM332.8 576c26.952 0.121 49.847-0.001 76.8 0 32.753 0.001 69.648 0 102.4 0 59.364-0.001 119.835 0.029 179.2 0 10.872-0.005 19.13-4.223 23.090-13.386 4.064-9.404 3.536-18.257-2.494-26.537-4.799-6.59-11.448-10.789-19.572-11.277-0.85-0.052-2.219 0-3.072 0-118.387-0.001-237.965 0-356.352 0-14.904 0-25.599 11.794-25.6 25.6 0 15.157 10.031 25.529 25.6 25.6zM332.8 473.6c1.020 0.065 1.025 0 2.048 0 118.558 0.002 237.794 0.022 356.352 0 14.585-0.003 25.6-12.010 25.6-25.6 0-14.962-10.508-25.601-25.6-25.6-15.52 0-30.557 0.001-46.080 0-44.353-0.001-88.767 0-133.12 0-59.364 0.001-119.836-0.041-179.2 0-15.694 0.011-25.6 10.562-25.6 25.6 0 13.037 12.554 24.773 25.6 25.6zM312.259 360.99c4.794 6.593 12.414 9.75 20.541 10.21 1.020 0.058 0 0 1.024 0 118.046 0.001 237.282 0.011 355.328 0 5.168-0.001 9.862-0.938 13.89-2.938l-48.706-48.262c-19.914 0-37.173 0.001-56.32 0-28.488-0.001-57.528 0-86.016 0-59.364 0.001-119.836-0.033-179.2 0-10.644 0.006-17.988 4.494-22.857 14.011-4.776 9.339-3.827 18.533 2.315 26.978zM433.639 218.491c-16.709-0.039-33.419-0.009-50.129-0.009-16.368 0-32.737-0.030-49.106 0.009-15.705 0.036-27.277 10.922-27.335 25.633-0.058 14.749 11.486 25.856 27.086 25.878 33.248 0.048 66.497 0.046 99.746 0.002 15.587-0.022 27.126-11.128 27.070-25.886-0.057-14.714-11.621-25.592-27.333-25.627zM880.287 365.252c-0.144-0.168-0.299-0.329-0.476-0.473-70.466-70.512-218.423-218.54-264.064-264.211l-112.253-58.001 59.484 110.792 272.362 272.156 44.457-43.288c2.309-2.313 3.662-5.313 3.795-8.445 0.128-3.237-1.039-6.268-3.305-8.529zM937.753 422.514c-0.142-0.15-0.294-0.307-0.461-0.446l-31.104-31.101-52.778 52.805 39.797 39.793 44.048-44.071c4.898-4.906 5.117-12.361 0.498-16.979z" />
<glyph unicode="&#xe940;" glyph-name="Document_stack" d="M537.6 857.6h-358.4v-614.4c0-28.277 22.923-51.2 51.2-51.2v614.4h358.4l-51.2 51.2zM614.4 780.8h-358.4v-614.4c0-28.277 22.923-51.2 51.2-51.2v614.4h358.4l-51.2 51.2zM650.24 576v128h-317.44v-614.4c0-28.277 22.923-51.2 51.2-51.2h460.8v471.040h-128c-36.701 0-66.56 29.859-66.56 66.56zM742.4 171.52h-307.2c-11.311 0-20.48 9.169-20.48 20.48s9.169 20.48 20.48 20.48h307.2c11.311 0 20.48-9.169 20.48-20.48s-9.169-20.48-20.48-20.48zM742.4 273.92h-307.2c-11.311 0-20.48 9.169-20.48 20.48s9.169 20.48 20.48 20.48h307.2c11.311 0 20.48-9.169 20.48-20.48s-9.169-20.48-20.48-20.48zM762.88 396.8c0-11.311-9.169-20.48-20.48-20.48h-307.2c-11.311 0-20.48 9.169-20.48 20.48s9.169 20.48 20.48 20.48h307.2c11.311 0 20.48-9.169 20.48-20.48zM716.8 550.4h128l-153.6 153.6v-128c0-14.138 11.462-25.6 25.6-25.6z" />
<glyph unicode="&#xe941;" glyph-name="document_Word" d="M685.512 678.4h159.288l-204.8 204.8v-153.602c0.002-28.276 20.378-51.198 45.512-51.198zM588.8 729.595v153.605h-409.6v-818.969h0.006c0-0.077-0.006-0.153-0.006-0.231 0-28.277 22.924-51.2 51.2-51.2h614.4v614.4h-153.6c-56.552 0-102.396 45.843-102.4 102.395zM479.96 268.8h-46.834l-36.326 139.403h-0.598l-35.728-139.403h-47.732l-56.742 204.8h47.134l33.924-139.403h0.602l37.226 139.403h44.132l36.624-141.123h0.6l35.125 141.123h46.232l-57.64-204.8zM768 243.2h-153.6c-14.138 0-25.6 11.462-25.6 25.6s11.462 25.6 25.6 25.6h153.6c14.138 0 25.6-11.462 25.6-25.6s-11.462-25.6-25.6-25.6zM768 345.6h-153.6c-14.138 0-25.6 11.462-25.6 25.6s11.462 25.6 25.6 25.6h153.6c14.138 0 25.6-11.462 25.6-25.6s-11.462-25.6-25.6-25.6zM793.6 473.6c0-14.138-11.462-25.6-25.6-25.6h-153.6c-14.138 0-25.6 11.462-25.6 25.6s11.462 25.6 25.6 25.6h153.6c14.138 0 25.6-11.462 25.6-25.6z" />
<glyph unicode="&#xe942;" glyph-name="document_zip" d="M685.512 678.4h159.288l-204.8 204.8v-153.602c0.002-28.276 20.378-51.198 45.512-51.198zM588.8 729.595v153.605h-117.76v-40.96h40.96v-40.96h-40.96v-40.96h40.96v-40.96h-40.96v-40.96h40.96v-40.96h-40.96v-40.96h40.96v-40.96h-40.96v-40.96h40.96v-122.88c0-33.932-27.508-61.44-61.44-61.44s-61.44 27.508-61.44 61.44v122.88h40.96v40.96h-40.96v40.96h40.96v40.96h-40.96v40.96h40.96v40.96h-40.96v40.96h40.96v40.96h-40.96v40.96h40.96v40.96h-250.88v-818.969h0.006c0-0.077-0.006-0.153-0.006-0.231 0-28.277 22.924-51.2 51.2-51.2h614.4v614.4h-153.6c-56.552 0-102.396 45.843-102.4 102.395zM414.72 391.68c0-19.794 16.046-35.84 35.84-35.84s35.84 16.046 35.84 35.84-16.046 35.84-35.84 35.84-35.84-16.046-35.84-35.84z" />
<glyph unicode="&#xe943;" glyph-name="Documentary" d="M935.751 514.595l-116.551-58.317v86.673c0 42.445-34.384 77.081-76.8 77.081h-230.4v51.146c0 28.297-22.923 51.236-51.2 51.236l-281.6 0.002-97.405 19.391c-15.834 3.152-30.595-8.97-30.595-25.126v-142.479c0-16.167 14.779-28.291 30.621-25.121l97.379 19.751h25.6v-338.944c0-42.446 34.385-76.799 76.8-76.799h537.6v118.272l116.551-58.317c17.022-8.518 37.049 3.87 37.049 22.914v255.722c0 19.044-20.027 31.432-37.049 22.914zM435.2 287.232c0-14.148-11.462-25.6-25.6-25.6h-76.8c-14.138 0-25.6 11.452-25.6 25.6v51.2c0 14.148 11.462 25.6 25.6 25.6h76.8c14.138 0 25.6-11.452 25.6-25.6v-51.2zM588.8 287.232c0-14.148-11.462-25.6-25.6-25.6h-76.8c-14.138 0-25.6 11.452-25.6 25.6v50.774c0 14.148 11.462 26.026 25.6 26.026h76.8c14.138 0 25.6-11.452 25.6-25.6v-51.2z" />
<glyph unicode="&#xe944;" glyph-name="done_modifier.psd" d="M723.909 615.352c-28.555 25.585-54.167 1.768-54.167 1.768l-210.664-210.575c-12.49-13.68-20.814-5.351-20.814-5.351s-69.020 69.601-79.742 80.3c-6.559 6.544-27.743 17.15-55.344-8.928-32.716-30.916-10.709-58.887-10.709-58.887s96.614-115.218 131.511-151.707c38.666-40.446 66.070-2.944 66.070-2.944l239.804 302.779c0 0 23.581 27.104-5.945 53.545zM512 883.2c-240.354 0-435.2-194.846-435.2-435.2s194.846-435.2 435.2-435.2 435.2 194.846 435.2 435.2-194.846 435.2-435.2 435.2zM818.689 318.491c-16.757-39.617-40.767-75.219-71.364-105.816s-66.199-54.607-105.816-71.364c-40.963-17.326-84.536-26.111-129.509-26.111-44.972 0-88.546 8.785-129.509 26.111-39.618 16.757-75.219 40.767-105.816 71.364s-54.607 66.199-71.364 105.816c-17.326 40.963-26.111 84.536-26.111 129.509s8.785 88.546 26.111 129.509c16.757 39.618 40.767 75.219 71.364 105.816s66.198 54.607 105.816 71.364c40.963 17.326 84.537 26.111 129.509 26.111s88.546-8.785 129.509-26.111c39.618-16.757 75.219-40.767 105.816-71.364s54.607-66.198 71.364-105.816c17.326-40.963 26.111-84.536 26.111-129.509s-8.785-88.546-26.111-129.509z" />
<glyph unicode="&#xe945;" glyph-name="done_modifier" d="M723.909 615.352c-28.555 25.585-54.167 1.768-54.167 1.768l-210.664-210.575c-12.49-13.68-20.814-5.351-20.814-5.351s-69.020 69.601-79.742 80.3c-6.559 6.544-27.743 17.15-55.344-8.928-32.716-30.916-10.709-58.887-10.709-58.887s96.614-115.218 131.511-151.707c38.666-40.446 66.070-2.944 66.070-2.944l239.804 302.779c0 0 23.581 27.104-5.945 53.545zM512 883.2c-240.354 0-435.2-194.846-435.2-435.2s194.846-435.2 435.2-435.2 435.2 194.846 435.2 435.2-194.846 435.2-435.2 435.2zM818.689 318.491c-16.757-39.617-40.767-75.219-71.364-105.816s-66.199-54.607-105.816-71.364c-40.963-17.326-84.536-26.111-129.509-26.111-44.972 0-88.546 8.785-129.509 26.111-39.618 16.757-75.219 40.767-105.816 71.364s-54.607 66.199-71.364 105.816c-17.326 40.963-26.111 84.536-26.111 129.509s8.785 88.546 26.111 129.509c16.757 39.618 40.767 75.219 71.364 105.816s66.198 54.607 105.816 71.364c40.963 17.326 84.537 26.111 129.509 26.111s88.546-8.785 129.509-26.111c39.618-16.757 75.219-40.767 105.816-71.364s54.607-66.198 71.364-105.816c17.326-40.963 26.111-84.536 26.111-129.509s-8.785-88.546-26.111-129.509z" />
<glyph unicode="&#xe946;" glyph-name="eDashboard" d="M512.512 882.688c-240.354 0-435.2-194.846-435.2-435.2s194.846-435.2 435.2-435.2 435.2 194.846 435.2 435.2-194.846 435.2-435.2 435.2zM332.832 137.262c-27.006 15.605-51.383 34.435-73.747 56.799-0.894 0.894-2.244 1.807-3.127 2.71v43.251l76.874 76.879v-179.638zM486.429 90.075c-26.187 1.832-51.894 6.616-76.836 14.048v261.956l59.798-59.718 17.053-17.36-0.014-198.926zM640 112.625c-24.876-9.525-50.070-16.183-76.386-19.924l-0.445 249.511 76.832 77.119v-306.706zM765.939 194.061c-15.104-15.104-31.9-29.115-49.171-41.169l0.032 313.549 11.762-11.329 36.586-36.586 28.432-29.001 0.004-163.791c-8.717-11.041-17.583-21.612-27.645-31.673zM793.622 447.488l-91.306 91.796-203.962-203.96-102.4 102.4-184.625-184.626c-11.228 17.362-20.954 35.69-29.082 54.908-6.248 14.77-11.44 29.86-15.616 45.207l229.324 229.326 102.4-102.4 131.554 131.553-91.433 91.312 229.493-0.060c14.138 0 25.672-11.39 25.672-25.528l-0.018-229.927z" />
<glyph unicode="&#xe947;" glyph-name="Edit_Image" d="M895.995 431.722c-0.286 9.716-4.297 18.926-11.295 25.932l-14.29 14.287v308.873c0 42.408-34.384 76.786-76.801 76.786h-640.009v-639.886c0-42.408 34.384-76.914 76.8-76.914h226.304l-46.65-85.975-39.084-72.745 189.233 97.709 2.817 2.817c12.758 12.758 33.732 33.382 58.548 58.194h248.832l0.010 248.932c7.565 7.554 14.864 14.846 15.046 15.035 6.995 7.141 10.832 16.942 10.539 26.955zM450.564 424.762l-80.797 113.36c-7.079 9.242-18.572 9.242-25.643 0l-118.844-133.128c-12.003 9.043-20.070 18.977-20.48 39.535v361.881h576.009c21.208 0 38.4-17.189 38.4-38.393v-251.501l-68.022-67.972-128.697 146.168c-7.095 9.245-18.576 9.245-25.661 0l-146.264-169.949zM809.589 365.34c-0.144-0.168-0.299-0.329-0.476-0.473-70.502-70.499-218.533-218.501-264.197-264.164l-112.31-57.99 59.515 110.772 272.498 272.106 44.481-43.281c2.31-2.313 3.663-5.313 3.797-8.444 0.128-3.235-1.039-6.265-3.306-8.526zM867.084 422.593c-0.142-0.151-0.294-0.307-0.461-0.446l-31.121-31.095-52.804 52.795 39.817 39.786 44.071-44.064c4.9-4.906 5.118-12.361 0.498-16.977zM347.697 729.589c-37.003 1.182-67.243-29.053-66.062-66.049 1.069-33.504 28.362-60.791 61.873-61.861 37.002-1.181 67.243 29.054 66.062 66.050-1.070 33.503-28.364 60.791-61.873 61.86z" />
<glyph unicode="&#xe948;" glyph-name="Email" d="M830.972 780.8h-728.572v-549.888c0-49.98 40.51-90.112 90.49-90.112h728.71c0 0 0 550.356 0 551.631 0 49.971-40.628 88.369-90.628 88.369zM844.8 588.652l-242.114-232.812c-23.707-23.552-55.85-35.788-91.266-35.788-35.403 0-67.546 12.236-91.3 35.788h-0.634l-240.287 232.657v88.612c96.219-95.114 271.346-264.949 271.346-264.949h0.056c15.67-16.384 37-23.344 60.538-23.344 24.933 0 47.37 10.032 63.242 27.44h0.111l270.307 262.092v-89.696z" />
<glyph unicode="&#xe949;" glyph-name="Excel" d="M685.512 678.4h159.288l-204.8 204.8v-153.602c0.002-28.276 20.378-51.198 45.512-51.198zM588.8 729.595v153.605h-409.6v-818.969h0.006c0-0.077-0.006-0.153-0.006-0.231 0-28.277 22.924-51.2 51.2-51.2h614.4v614.4h-153.6c-56.552 0-102.396 45.843-102.4 102.395zM409.6 140.8h-102.4v51.2h102.4v-51.2zM563.2 140.8h-102.4v51.2h102.4v-51.2zM555.702 286.902c4.633-4.634 7.498-11.034 7.498-18.102 0-14.138-11.462-25.6-25.6-25.6-7.069 0-13.469 2.865-18.102 7.498l-71.498 71.499-71.498-71.498c-4.634-4.634-11.034-7.499-18.102-7.499-14.138 0-25.6 11.462-25.6 25.6 0 7.069 2.865 13.469 7.498 18.102l71.498 71.498-71.498 71.498c-4.633 4.634-7.498 11.034-7.498 18.102 0 14.138 11.462 25.6 25.6 25.6 7.069 0 13.469-2.865 18.102-7.498l71.498-71.498 71.498 71.498c4.634 4.633 11.034 7.498 18.102 7.498 14.138 0 25.6-11.462 25.6-25.6 0-7.069-2.865-13.469-7.498-18.102l-71.499-71.498 71.499-71.498zM716.8 140.8h-102.4v51.2h102.4v-51.2zM716.8 243.2h-102.4v51.2h102.4v-51.2zM716.8 345.6h-102.4v51.2h102.4v-51.2zM716.8 448h-102.4v51.2h102.4v-51.2z" />
<glyph unicode="&#xe94a;" glyph-name="facebook-logo" d="M512 960c-282.773 0-512-229.227-512-512 0-282.784 229.227-512 512-512s512 229.216 512 512c0 282.773-229.227 512-512 512zM633.269 606.187h-76.981c-9.109 0-19.253-11.957-19.253-27.979v-55.584h96.224v-79.232h-96.224v-237.931h-90.88v237.931h-82.379v79.232h82.379v46.635c0 66.869 46.421 121.259 110.123 121.259h76.981l0.011-84.331z" />
<glyph unicode="&#xe94b;" glyph-name="Facebook" d="M512-64c-282.77 0-512 229.23-512 512s229.23 512 512 512c282.77 0 512-229.23 512-512s-229.23-512-512-512zM512-2.56c248.837 0 450.56 201.723 450.56 450.56s-201.723 450.56-450.56 450.56c-248.837 0-450.56-201.723-450.56-450.56s201.723-450.56 450.56-450.56zM549.161 222.72v225.306h66.647l8.832 77.642h-75.479l0.113 38.86c0 20.25 2.062 31.101 33.229 31.101h41.665v77.651h-66.656c-80.065 0-108.245-37.665-108.245-101.005v-46.616h-49.907v-77.642h49.907v-225.298h99.894z" />
<glyph unicode="&#xe94c;" glyph-name="Family_Place" d="M281.058 358.4c0 10.967-1.983 21.467-5.59 31.178-29.423 16.761-52.21 43.822-63.464 76.276l-7.746 7.747-25.6-25.6-25.6 25.6v-25.6h-25.6v-25.6h-25.6v-25.6h-25.6l25.6-51.2h-25.6l52.497-51.196c16.16-15.836 38.288-25.604 62.703-25.604 49.485 0 89.6 40.114 89.6 89.6zM155.477 248.938c-1.585-18.452-2.419-37.482-2.419-56.938h102.4c0 24.968 1.322 49.53 3.882 73.325-19.039-13.909-42.499-22.125-67.882-22.125-12.567 0-24.66 2.020-35.981 5.738zM453.984 422.783c-25.822-31.489-65.026-51.583-108.926-51.583-12.448 0-24.514 1.623-36.009 4.655-17.58-51.263-27.991-114.906-27.991-183.855h128c0 85.659 15.473 166.593 43.568 227.89 0.446 0.977 0.904 1.929 1.358 2.893zM780.258 345.6c-22.456 0-43.406 6.432-61.122 17.544 14.798-50.989 22.722-109.854 22.722-171.144h128c0 64.449-9.103 124.251-24.648 173.651-18.492-12.648-40.857-20.051-64.952-20.051zM943.833 539.959c-6.458 8.609-11.858 1.714-11.858 1.714-18.524-21.484-32.465 1.777-32.465 1.777s-10.892 21.643-40.926 21.643-39.709-23.42-39.709-23.42v-0.002c-11.694 5.594-24.789 8.729-38.617 8.729-14.325 0-27.861-3.367-39.87-9.345-4.997-37.573-22.531-71.18-48.26-96.486 7.638-41.736 44.189-73.369 88.131-73.369 49.485 0 89.6 40.114 89.6 89.6 0 29.84-14.59 56.268-37.022 72.552 16.265 21.61 36.954 6.435 39.849-11.276 5.285-32.339 31.821-43.538 51.555-33.145 24.78 13.051 25.094 43.693 19.592 51.028zM575.458 396.8c-34.021 0-65.651 10.218-92.006 27.741-29.882-56.332-48.794-139.616-48.794-232.541h281.6c0 92.925-18.911 176.209-48.794 232.541-26.355-17.523-57.986-27.741-92.006-27.741zM575.458 422.4c77.762 0 140.8 63.038 140.8 140.8s-63.038 140.8-140.8 140.8-140.8-63.038-140.8-140.8 63.037-140.8 140.8-140.8zM236.415 473.62c15.81-44.753 58.478-76.82 108.643-76.82 44.018 0 82.264 24.691 101.659 60.976-23.533 28.702-37.659 65.412-37.659 105.424 0 14.143 1.77 27.874 5.092 40.986-19.249 14.451-43.171 23.014-69.092 23.014-48.005 0-89.146-29.366-106.455-71.113v0.017c-20.359-45.34-59.946-5.704-59.946-5.704 0.001-71.927 51.252-76.491 57.758-76.781z" />
<glyph unicode="&#xe94d;" glyph-name="family-out" d="M911.071 609.661c71.725-31.862 113.588-86.028 112.908-165.735-0.683-79.72-43.546-133.1-115.565-163.753 28.386-73.125 19.536-140.59-36.841-196.521-56.7-56.264-124.592-63.751-197.912-34.72-31.651-71.379-85.636-113.477-165.367-112.929-79.795 0.548-133.211 43.292-164.084 115.615-72.281-28.214-138.093-18.504-195.745 35.283-17.843 16.649-30.606 37.056-39.617 59.761-8.913 22.473-12.694 45.795-12.027 69.96 0.677 24.38 6.784 47.39 16.803 69.397-72.413 32.193-114.3 86.343-113.617 166.058 0.683 79.731 43.546 133.103 115.57 163.751-28.492 73.418-19.438 141.043 37.32 197.007 56.663 55.869 124.393 63.169 197.428 34.225 31.629 71.434 85.676 113.459 165.373 112.932 79.789-0.526 133.219-43.281 164.089-115.604 71.995 28.121 139.019 19.957 194.907-35.164 57.682-56.88 65.778-125.441 36.378-199.563z" />
<glyph unicode="&#xe94e;" glyph-name="family" d="M0-64c0 341.334 0 682.668 0 1024 341.334 0 682.664 0 1023.998 0 0-341.334 0-682.666 0-1024-341.334 0-682.664 0-1023.998 0zM841.647 581.531c24.282 61.227 17.597 117.86-30.048 164.847-46.163 45.531-101.529 52.276-160.999 29.047-25.502 59.741-69.632 95.058-135.543 95.493-65.832 0.435-110.476-34.279-136.603-93.285-60.329 23.909-116.276 17.881-163.081-28.271-46.886-46.228-54.363-102.090-30.826-162.734-59.496-25.316-94.902-69.403-95.466-135.263-0.562-65.847 34.036-110.576 93.851-137.167-8.272-18.181-13.32-37.192-13.88-57.328-0.551-19.964 2.572-39.224 9.937-57.789 7.437-18.753 17.984-35.612 32.722-49.362 47.623-44.432 101.985-52.45 161.691-29.145 25.502-59.741 69.624-95.049 135.538-95.501 65.86-0.452 110.454 34.318 136.598 93.283 60.565-23.981 116.645-17.796 163.481 28.679 46.569 46.202 53.875 101.931 30.432 162.334 59.49 25.318 94.896 69.407 95.46 135.263 0.559 65.841-34.018 110.581-93.268 136.9z" />
<glyph unicode="&#xe94f;" glyph-name="favourite" d="M946.176 546.303l-307.2 51.202-128 266.239-128-266.24-307.2-51.2 230.4-204.8-76.8-307.2 281.6 153.6 281.6-153.6-76.8 307.2z" />
<glyph unicode="&#xe950;" glyph-name="Filter" d="M921.6 832c0 28.277-22.923 51.2-51.2 51.2h-716.8c-28.277 0-51.2-22.923-51.2-51.2v-76.8l332.8-332.8v-256l153.6-153.6v409.6l332.8 332.8v76.8z" />
<glyph unicode="&#xe951;" glyph-name="Finance" d="M332.8 601.6h421.699l-68.119 151.508c-11.586 25.769-41.878 37.261-67.659 25.67l-513.497-230.873c-25.781-11.591-37.289-41.878-25.703-67.646l146.846-326.609c7.931-17.638 24.626-28.583 42.64-30.019-8.211 12.225-13.007 26.936-13.007 42.769v358.4c0 42.415 34.385 76.8 76.8 76.8zM537.6 217.6h51.2c14.138 0 25.6 11.462 25.6 25.6s-11.462 25.6-25.6 25.6h-51.2c-14.138 0-25.6-11.462-25.6-25.6s11.462-25.6 25.6-25.6zM409.6 217.6h51.2c14.138 0 25.6 11.462 25.6 25.6s-11.462 25.6-25.6 25.6h-51.2c-14.138 0-25.6-11.462-25.6-25.6s11.462-25.6 25.6-25.6zM896 576h-563.2c-28.277 0-51.2-22.923-51.2-51.2v-358.4c0-28.277 22.923-51.2 51.2-51.2h563.2c28.277 0 51.2 22.923 51.2 51.2v358.4c0 28.277-22.923 51.2-51.2 51.2zM896 192c0-14.138-11.462-25.6-25.6-25.6h-512c-14.138 0-25.6 11.462-25.6 25.6v179.2h563.2v-179.2zM896 448h-563.2v51.2c0 14.138 11.462 25.6 25.6 25.6h512c14.138 0 25.6-11.462 25.6-25.6v-51.2zM665.6 217.6h51.2c14.138 0 25.6 11.462 25.6 25.6s-11.462 25.6-25.6 25.6h-51.2c-14.138 0-25.6-11.462-25.6-25.6s11.462-25.6 25.6-25.6z" />
<glyph unicode="&#xe952;" glyph-name="Football" d="M512.507 882.188c-240.074 0-434.693-194.621-434.693-434.701 0-240.071 194.619-434.699 434.693-434.699 240.079 0 434.703 194.628 434.703 434.699 0 240.080-194.625 434.701-434.703 434.701zM808.669 200.887l-11.603 74.097-134.632-34.446-73.461-116.658 66.629-34.589c-44.082-17.639-92.194-27.348-142.574-27.348-50.947 0-99.576 9.928-144.061 27.947l66.887 33.934-74.364 117.398-133.649 33.817-12.007-72.255c-54.242 66.221-86.794 150.894-86.794 243.172 0 8.557 0.286 17.047 0.837 25.464l50.595-50.772 88.672 107.003-9.139 137.557-69.257-10.431c51.412 79.189 131.198 138.25 224.966 162.745l-31.864-62.267 129.167-51.266 128 51.2-31.242 62.486c94.381-24.496 174.644-84.001 226.139-163.813l-70.987 11.37-8.842-138.687 88.248-105.915 51.84 51.059c0.563-8.505 0.856-17.084 0.856-25.731-0.001-93.16-33.179-178.571-88.358-245.068zM385.014 499.188l51.2-153.6h153.6l51.2 153.6-128 89.871-128-89.871z" />
<glyph unicode="&#xe953;" glyph-name="Forward" d="M921.6 448c0 26.939-10.572 51.408-27.793 69.487l0.004 0.003-356.211 365.71v-230.4h-358.4c-42.24 0-76.8-34.56-76.8-76.8v-256c0-42.24 34.56-76.8 76.8-76.8h358.4v-230.4l356.207 365.713c17.222 18.079 27.793 42.547 27.793 69.487v0z" />
<glyph unicode="&#xe954;" glyph-name="fun-out" d="M511.86 874.373c125.021 120.556 311.902 107.391 420.604 0.653 38.385-37.692 65.436-82.203 80.096-133.958 14.715-51.956 15.433-104.24 2.063-156.673-13.294-52.155-39.202-97.235-76.441-136.244 60.185-64.277 90.021-139.903 85.216-227.662-4.42-80.683-37.095-149.053-96.145-204.217-112.092-104.707-293.732-111.135-415.070 5.382-74.682-68.847-162.289-97.749-263.021-80.914-72.090 12.049-131.769 47.494-178.92 103.391-94.724 112.296-97.542 286.167 15.449 403.834-63.897 68.642-93.531 149.666-83.789 243.375 7.77 74.769 40.214 138.202 95.61 189.049 58.767 53.943 128.733 80.672 208.467 79.495 79.474-1.172 147.86-30.751 205.882-85.512z" />
<glyph unicode="&#xe955;" glyph-name="fun" horiz-adv-x="1023" d="M-0.002-63.424c0 340.95 0 681.898 0 1022.851 340.95 0 681.898 0 1022.855 0 0-340.952 0-681.9 0-1022.851-2.257 0.12-4.516 0.336-6.781 0.336-336.428 0.021-672.869 0.021-1009.302 0-2.255 0.004-4.513-0.221-6.772-0.336zM511.303 789.729c-46.504 43.893-101.319 67.599-165.025 68.54-63.907 0.943-119.989-20.483-167.092-63.718-44.401-40.756-70.404-91.599-76.634-151.528-7.81-75.109 15.944-140.053 67.16-195.072-90.567-94.314-88.302-233.672-12.385-323.689 37.793-44.798 85.627-73.22 143.409-82.868 80.74-13.494 150.959 9.674 210.819 64.855 97.256-93.385 242.846-88.239 332.69-4.318 47.324 44.216 73.518 99.016 77.063 163.69 3.852 70.341-20.063 130.957-68.303 182.475 29.848 31.268 50.614 67.403 61.27 109.205 10.716 42.027 10.136 83.934-1.654 125.578-11.75 41.48-33.433 77.159-64.203 107.371-87.121 85.556-236.906 96.11-337.115-0.521z" />
<glyph unicode="&#xe956;" glyph-name="games" d="M934.975 359.295l-118.824 285.606c-19.351 49.583-67.488 84.708-123.862 84.708h-362.627c-56.373 0-104.51-35.125-123.901-84.708l-118.784-285.606c-7.197-16.382-11.195-34.485-11.195-53.55 0-73.533 59.492-139.354 132.977-139.354 56.293 0 104.471 37.133 123.861 86.716l3.359 8.091c12.875 30.92 43.159 58.802 78.742 58.802h193.536c35.583 0 64.843-27.922 77.718-58.883l3.359-8.010c19.35-49.583 67.488-86.716 123.861-86.716 73.405 0 132.977 65.821 132.977 139.354 0 19.065-3.998 37.168-11.194 53.55zM435.2 473.6h-51.2v-51.2c0-21.332-17.311-38.914-38.391-38.914-21.165 0-38.409 17.582-38.409 38.914v51.2h-51.2c-21.122 0-37.887 17.145-37.887 38.393 0 21.333 16.765 38.407 37.887 38.407h51.2v51.2c0 21.29 17.244 38.9 38.409 38.9 21.080 0 38.391-17.61 38.391-38.9v-51.2h51.2c21.122 0 37.904-17.074 37.904-38.407 0-21.248-16.782-38.393-37.904-38.393zM588.322 473.586c-21.257 0-38.45 17.227-38.45 38.39 0 21.248 17.193 38.433 38.45 38.433 21.172 0 38.364-17.185 38.364-38.433 0-21.162-17.192-38.39-38.364-38.39zM678.442 384.51c-21.248 0-38.433 17.177-38.433 38.415 0 21.154 17.185 38.374 38.433 38.374 21.163 0 38.348-17.22 38.348-38.374 0-21.239-17.185-38.415-38.348-38.415zM678.442 562.696c-21.248 0-38.433 17.185-38.433 38.39 0 21.206 17.185 38.39 38.433 38.39 21.163 0 38.348-17.184 38.348-38.39s-17.185-38.39-38.348-38.39zM767.437 473.586c-21.173 0-38.365 17.227-38.365 38.39 0 21.248 17.192 38.433 38.365 38.433 21.257 0 38.449-17.185 38.449-38.433 0-21.162-17.192-38.39-38.449-38.39z" />
<glyph unicode="&#xe957;" glyph-name="Gauge-rate" d="M512 883.2c-240.354 0-435.2-194.846-435.2-435.2s194.846-435.2 435.2-435.2c240.354 0 435.2 194.846 435.2 435.2s-194.846 435.2-435.2 435.2zM716.506 448c-2.853 66.658-27.878 127.567-67.874 175.56l-35.012-190.21c-1.285-8.79-3.697-17.366-7.178-25.511-16.164-37.809-53.179-62.239-94.303-62.239-13.886 0-27.442 2.787-40.292 8.283-51.984 22.236-76.197 82.619-53.974 134.602 3.471 8.12 7.989 15.772 13.439 22.762l130.136 183.486c-41.412 22.237-88.751 34.866-139.048 34.866-85.475 0-162.428-36.439-216.21-94.615 63.001 102.816 176.392 171.415 305.81 171.415 197.939 0 358.4-160.461 358.4-358.4h-153.894zM452.040 496.191c-4.227-5.299-7.833-11.232-10.627-17.768-16.703-39.071 1.43-84.291 40.502-101.004 39.071-16.712 84.285 1.411 100.988 40.482 2.793 6.536 4.591 13.243 5.5 19.961l0.016-0.007 62.31 338.509-198.69-280.172z" />
<glyph unicode="&#xe958;" glyph-name="Gauge-Mon-Reseau" d="M946.948 449.049c0.072-0.007 0.153-0.015 0.252-0.025 0 240.354-196.126 434.435-436.48 434.435s-433.92-194.081-433.92-434.435c0-0.215 0-1.024 0-1.024v-25.6c0-28.277 22.923-51.2 51.2-51.2h766.976c28.277 0 52.224 22.923 52.224 51.2v26.624c0 0-0.119 0.011-0.252 0.025zM303.773 548.763l-9.796-23.709-118.104 49.037c1.769 4.742 3.618 9.461 5.593 14.142 1.357 3.214 2.771 6.396 4.216 9.561l0.018-0.008c16.104 35.259 37.738 67.447 63.779 95.466 0.003 0.002 0.005 0.004 0.007 0.008l54.359-54.488c-19.022-20.865-34.966-44.599-47.098-70.485l47.025-19.526zM651.074 696.316c-33.018-101.253-72.663-237.579-72.663-237.579l-0.017 2.058c-1.77-6.977-4.474-13.836-8.209-20.394-22.326-39.208-72.193-54.948-111.383-32.631s-52.863 72.191-30.537 111.399c3.736 6.558 8.254 12.384 13.352 17.466l-0.016 0.009c0 0 91.173 101.858 162.531 180.147-28.316 9.412-58.59 14.517-90.056 14.517-55.296 0-106.922-15.738-150.675-42.98l-0.105-0.030c-8.676-5.409-17.036-11.278-25.050-17.57-0.375-0.293-0.748-0.588-1.122-0.883-0.239-0.189-0.479-0.38-0.718-0.571-4.964-3.951-9.795-8.064-14.484-12.331l-54.329 54.458c24.134 22.524 51.373 41.747 81.001 56.961l-0.009 0.046c7.733 3.964 15.625 7.655 23.672 11.066 7.986 3.387 16.066 6.46 24.226 9.241l0.027-0.041c26.737 9.098 54.889 15.118 84.039 17.645 0.625 0.054 1.249 0.112 1.875 0.163 1.71 0.139 3.425 0.258 5.142 0.374 1.176 0.077 2.353 0.152 3.531 0.217 1.414 0.081 2.83 0.157 4.248 0.221 1.618 0.072 3.239 0.128 4.862 0.18 1.080 0.034 2.157 0.076 3.238 0.1 2.762 0.062 5.528 0.102 8.3 0.102 2.966 0 5.927-0.038 8.88-0.109 2.459-0.059 4.908-0.158 7.354-0.267 0.463-0.022 0.924-0.029 1.386-0.051 87.384-4.242 166.542-39.862 226.528-95.85l-52.119-52.243c-16.051 14.274-33.724 26.758-52.697 37.159zM729.512 525.054l-9.797 23.709 47.024 19.524c-12.131 25.886-28.075 49.62-47.097 70.485l54.357 54.484c26.043-28.019 47.679-60.21 63.784-95.471l0.024 0.009c1.444-3.165 2.858-6.347 4.215-9.561 1.975-4.681 3.825-9.4 5.594-14.142l-118.104-49.036zM459.699 519.016c-3.457-3.481-6.521-7.473-9.054-11.965-15.139-26.861-5.868-61.029 20.707-76.318s60.392-5.91 75.531 20.951c2.533 4.494 4.366 9.193 5.567 13.972l0.011-0.006 74.232 238.344-166.995-184.978z" />
<glyph unicode="&#xe959;" glyph-name="Generic_Document" d="M685.509 678.399h159.291l-204.801 204.801v-153.603c0-28.277 20.377-51.198 45.51-51.198zM588.8 729.595v153.605h-409.6v-818.968h0.006c0-0.078-0.006-0.154-0.006-0.232 0-28.277 22.923-51.2 51.2-51.2h614.4v614.399h-153.602c-56.551 0-102.395 45.844-102.398 102.396zM435.201 217.6h-102.401c-14.138 0-25.6 11.462-25.6 25.6s11.462 25.6 25.6 25.6h102.401c14.138 0 25.6-11.462 25.6-25.6s-11.462-25.6-25.6-25.6zM691.199 320h-358.399c-14.138 0-25.6 11.462-25.6 25.6s11.462 25.6 25.6 25.6h358.399c14.139 0 25.6-11.462 25.6-25.6s-11.461-25.6-25.6-25.6zM691.199 422.4h-358.399c-14.138 0-25.6 11.462-25.6 25.6s11.462 25.6 25.6 25.6h358.399c14.139 0 25.6-11.462 25.6-25.6s-11.461-25.6-25.6-25.6zM716.8 550.4c0-14.138-11.461-25.6-25.6-25.6h-358.399c-14.138 0-25.6 11.462-25.6 25.6s11.462 25.6 25.6 25.6h358.399c14.139 0 25.6-11.462 25.6-25.6z" />
<glyph unicode="&#xe95a;" glyph-name="google-plus_hover" d="M495.383 546.071c0 52.363-31.279 133.911-91.695 133.911-18.897 0-39.285-9.449-50.967-24.064-12.38-15.266-16.011-34.908-16.011-53.854 0-48.732 28.393-129.536 90.995-129.536 18.199 0 37.841 8.751 49.525 20.388 16.71 16.802 18.153 40.075 18.153 53.154zM1024 448c0 282.765-229.237 512-512 512-282.765 0-512-229.235-512-512 0-282.763 229.235-512 512-512 282.763 0 512 229.237 512 512zM669.555 546.443h39.379v-78.754h78.754v-39.379h-78.754v-78.754h-39.379v78.754h-78.754v39.379h78.754v78.754zM236.311 253.487c0 26.204 13.079 63.301 56.041 88.809 45.103 27.646 106.263 31.277 138.985 33.466-10.193 13.126-21.83 26.949-21.83 49.477 0 12.382 3.631 19.642 7.262 28.394-8.006-0.698-16.011-1.444-23.319-1.444-77.126 0-120.785 57.53-120.785 114.27 0 33.466 15.268 70.609 46.592 97.513 41.519 34.21 90.995 40.030 130.281 40.030h149.924l-46.592-26.159h-45.103c16.709-13.824 51.665-42.961 51.665-98.257 0-53.854-30.579-79.313-61.114-103.33-9.449-9.449-20.386-19.642-20.386-35.654s10.938-24.763 18.897-31.279l26.206-20.386c32.023-26.903 61.114-51.667 61.114-101.935 0-68.375-66.234-137.542-191.394-137.542-105.474-0.047-156.441 50.176-156.441 104.030zM456.098 354.677c-5.818 0.698-9.449 0.698-16.71 0.698-6.562 0-45.847-1.442-76.427-11.682-16.011-5.818-62.605-23.273-62.605-74.938s50.223-88.762 128.094-88.762c69.865 0 106.961 33.466 106.961 78.569 0 37.142-23.97 56.783-79.313 96.115z" />
<glyph unicode="&#xe95b;" glyph-name="google-plus" d="M584.192 286.953c0 50.223-29.092 74.985-61.114 101.935l-26.206 20.388c-8.006 6.517-18.897 15.266-18.897 31.277 0 16.013 10.938 26.206 20.386 35.654 30.534 24.017 61.115 49.478 61.115 103.33 0 55.343-34.957 84.433-51.665 98.257v0h45.103l46.545 26.206h-149.924c-39.285 0-88.762-5.819-130.281-40.030-31.277-26.903-46.545-64.047-46.545-97.513 0-56.74 43.659-114.27 120.785-114.27 7.309 0 15.268 0.745 23.319 1.444-3.631-8.751-7.262-16.011-7.262-28.394 0-22.528 11.637-36.397 21.83-49.477-32.721-2.189-93.882-5.819-138.985-33.466-42.961-25.461-56.041-62.605-56.041-88.809 0-53.854 50.967-104.075 156.486-104.075 125.114-0.002 191.347 69.165 191.347 137.541zM427.706 472.529c-62.603 0-90.995 80.802-90.995 129.536 0 18.944 3.631 38.541 16.011 53.854 11.637 14.569 32.023 24.064 50.967 24.064 60.416 0 91.695-81.549 91.695-133.911 0-13.126-1.442-36.399-18.199-53.154-11.637-11.637-31.279-20.341-49.478-20.388zM428.45 179.991c-77.871 0-128.094 37.097-128.094 88.762s46.592 69.122 62.605 74.938c30.579 10.195 69.865 11.682 76.427 11.682 7.262 0 10.893 0 16.71-0.745 55.343-39.285 79.313-58.927 79.313-96.069 0-45.103-37.097-78.569-106.961-78.569zM590.754 428.31h78.801v-78.754h39.379v78.754h78.756v39.379h-78.756v78.754h-39.379v-78.754h-78.801zM1024 448c0 282.765-229.237 512-512 512-282.765 0-512-229.235-512-512 0-282.763 229.235-512 512-512 282.763 0 512 229.237 512 512zM46.545 448c0 257.071 208.384 465.455 465.455 465.455s465.455-208.384 465.455-465.455-208.384-465.455-465.455-465.455-465.455 208.384-465.455 465.455z" />
<glyph unicode="&#xe95c;" glyph-name="HDMI_Card" d="M947.2 576h-179.2v-281.6h179.2l51.2 51.2v179.2l-51.2 51.2zM870.4 345.6h-51.2v51.2h51.2v-51.2zM870.4 473.6h-51.2v51.2h51.2v-51.2zM716.8 627.2h-614.4c-42.415 0-76.8-34.384-76.8-76.8v-230.4c0-42.415 34.385-76.8 76.8-76.8h614.4c14.138 0 25.6 11.462 25.6 25.6v332.8c0 14.138-11.462 25.6-25.6 25.6zM192 345.6c-49.485 0-89.6 40.115-89.6 89.6s40.115 89.6 89.6 89.6 89.6-40.115 89.6-89.6-40.115-89.6-89.6-89.6z" />
</font>
</defs>
</svg>
